<svg width="84" height="84" viewBox="0 0 84 84" fill="none" xmlns="http://www.w3.org/2000/svg">
<rect width="84" height="84" rx="32" fill="#FACD49"/>
<path fill-rule="evenodd" clip-rule="evenodd" d="M47.7302 24.8115L47.7319 26.0709C52.3596 26.4336 55.4167 29.5871 55.4216 34.423L55.4399 48.5783C55.4464 53.851 52.134 57.0951 46.8245 57.1035L33.855 57.1203C28.5787 57.127 25.2248 53.8056 25.2181 48.5178L25.1999 34.5288C25.1933 29.661 28.1425 26.5159 32.7703 26.0911L32.7686 24.8317C32.7669 24.0929 33.3143 23.5371 34.0441 23.5371C34.774 23.5354 35.3213 24.0895 35.323 24.8283L35.3247 26.0037L45.1774 25.9903L45.1758 24.8149C45.1741 24.0761 45.7214 23.5219 46.4514 23.5203C47.1645 23.5186 47.7285 24.0727 47.7302 24.8115ZM27.756 35.0477L52.8688 35.0141V34.4264C52.7976 30.8162 50.9862 28.9221 47.7351 28.64L47.7368 29.933C47.7368 30.655 47.1745 31.2276 46.4613 31.2276C45.7315 31.2293 45.1823 30.6584 45.1823 29.9363L45.1808 28.5762L35.328 28.5897L35.3296 29.9481C35.3296 30.6718 34.7839 31.2427 34.0541 31.2427C33.3243 31.2444 32.7752 30.6752 32.7752 29.9515L32.7736 28.6585C29.5391 28.9826 27.7493 30.8834 27.7543 34.5255L27.756 35.0477ZM45.7629 42.6795V42.698C45.7795 43.4704 46.4099 44.0564 47.1745 44.0396C47.9209 44.0211 48.5164 43.3814 48.4998 42.6089C48.465 41.8701 47.8661 41.2673 47.1214 41.269C46.3585 41.2858 45.7612 41.907 45.7629 42.6795ZM47.133 50.2188C46.3701 50.202 45.7547 49.5657 45.753 48.7934C45.7364 48.0209 46.3484 47.3811 47.1115 47.3627H47.1281C47.9076 47.3627 48.5396 47.9991 48.5396 48.7883C48.5413 49.5774 47.911 50.2172 47.133 50.2188ZM38.929 42.7064C38.9623 43.4788 39.5941 44.0816 40.3572 44.048C41.1036 44.0127 41.6992 43.3747 41.6659 42.6022C41.6476 41.8466 41.0339 41.2589 40.2875 41.2606C39.5246 41.2942 38.9273 41.9339 38.929 42.7064ZM40.3639 50.1434C39.6008 50.177 38.9705 49.574 38.9357 48.8018C38.9357 48.0293 39.5311 47.3912 40.2942 47.3559C41.0406 47.3543 41.656 47.9419 41.6726 48.6959C41.7074 49.4701 41.1103 50.1081 40.3639 50.1434ZM32.0952 42.7652C32.1283 43.5375 32.7603 44.1421 33.5233 44.1068C34.2697 44.0732 34.8652 43.4335 34.8304 42.661C34.8138 41.9054 34.2001 41.3177 33.452 41.3194C32.689 41.353 32.0935 41.9927 32.0952 42.7652ZM33.5299 50.1518C32.7669 50.1871 32.1366 49.5824 32.1018 48.8102C32.1001 48.0377 32.6973 47.3979 33.4603 47.3643C34.2067 47.3627 34.8221 47.9503 34.8387 48.706C34.8735 49.4785 34.278 50.1182 33.5299 50.1518Z" fill="white"/>
</svg>
