<svg width="39" height="41" viewBox="0 0 39 41" fill="none" xmlns="http://www.w3.org/2000/svg">
<path d="M18.7521 20.2065C14.5728 19.5223 12.7998 23.1319 8.24048 25.9024C1.65485 29.9893 1.65486 34.7133 4.82102 36.311C7.98719 37.9088 11.6599 34.645 15.3327 35.5944C19.0054 36.2885 21.0318 40.7174 24.5779 40.3926C28.124 40.1955 30.1503 35.8148 25.8443 29.5155C22.9315 25.3593 22.8048 21.2762 18.7521 20.2065Z" fill="#0047BA"/>
<path d="M8.86787 14.4553C10.3149 18.362 9.71198 22.4445 7.54145 23.5725C5.25034 24.703 2.23572 22.4553 0.788699 18.5486C-0.658318 14.6419 -0.0553871 10.5593 2.11514 9.43127C4.40625 8.30085 7.42086 10.5486 8.86787 14.4553Z" fill="#0047BA"/>
<path d="M29.3899 18.8185C26.3613 21.5798 25.3517 25.3308 26.9922 27.2287C28.6328 29.1265 32.4186 28.5377 35.4472 25.7764C38.4759 23.0151 39.4854 19.264 37.8449 17.3662C36.0782 15.4708 32.2924 16.0597 29.3899 18.8185Z" fill="#0047BA"/>
<path d="M19.9974 8.73051C19.8721 13.1837 17.4921 16.737 14.8615 16.6536C12.2309 16.5703 10.2267 12.8332 10.3519 8.37996C10.4772 3.92676 12.8573 0.373477 15.4878 0.456818C18.1184 0.540156 20.1227 4.27731 19.9974 8.73051Z" fill="#0047BA"/>
<path d="M22.2276 9.0579C20.6427 12.9104 21.3742 16.7174 23.6905 17.6582C26.1288 18.5966 29.2986 16.3157 30.8835 12.5865C32.4683 8.73401 31.7369 4.92693 29.4205 3.98613C27.1041 2.92207 23.8125 5.20544 22.2276 9.0579Z" fill="#0047BA"/>
</svg>
