<svg width="84" height="84" viewBox="0 0 84 84" fill="none" xmlns="http://www.w3.org/2000/svg">
<rect width="84" height="84" rx="32" fill="#0047BA"/>
<path fill-rule="evenodd" clip-rule="evenodd" d="M27.7201 39.1739C27.7201 31.446 34.1778 25.2 41.989 25.2C49.8223 25.2 56.2801 31.446 56.2801 39.1739C56.2801 43.0679 54.8639 46.6831 52.5329 49.7474C49.9613 53.1274 46.7918 56.0725 43.224 58.384C42.4075 58.9182 41.6706 58.9585 40.7744 58.384C37.1865 56.0725 34.0169 53.1274 31.4673 49.7474C29.1346 46.6831 27.7201 43.0679 27.7201 39.1739ZM37.2864 39.609C37.2864 42.1977 39.3989 44.2338 41.989 44.2338C44.5809 44.2338 46.7138 42.1977 46.7138 39.609C46.7138 37.0403 44.5809 34.905 41.989 34.905C39.3989 34.905 37.2864 37.0403 37.2864 39.609Z" fill="white"/>
</svg>
