<svg width="84" height="84" viewBox="0 0 84 84" fill="none" xmlns="http://www.w3.org/2000/svg">
<rect width="84" height="84" rx="32" fill="#0047BA"/>
<path fill-rule="evenodd" clip-rule="evenodd" d="M58.4426 39.5453C58.2151 39.7664 57.9065 39.8926 57.5816 39.8926C56.3792 39.8926 55.4043 40.8398 55.4043 41.9919C55.4043 43.152 56.3678 44.0943 57.5587 44.107C58.2297 44.1133 58.8001 44.5679 58.8001 45.2197V49.2683C58.8001 52.676 55.9567 55.4398 52.4473 55.4398H47.1506C46.6029 55.4398 46.1594 55.0089 46.1594 54.477V51.0676C46.1594 50.4047 45.6233 49.8839 44.9409 49.8839C44.2748 49.8839 43.7222 50.4047 43.7222 51.0676V54.477C43.7222 55.0089 43.2787 55.4398 42.7329 55.4398H31.5529C28.0597 55.4398 25.2001 52.6776 25.2001 49.2683V45.2197C25.2001 44.5679 25.7704 44.1133 26.4414 44.107C27.634 44.0943 28.5958 43.152 28.5958 41.9919C28.5958 40.8712 27.6535 40.0189 26.4186 40.0189C26.0937 40.0189 25.785 39.8926 25.5575 39.6717C25.3301 39.4508 25.2001 39.1509 25.2001 38.8352V34.7471C25.2001 31.3441 28.0662 28.5598 31.5691 28.5598H42.7329C43.2787 28.5598 43.7222 28.9907 43.7222 29.5226V33.5633C43.7222 34.2105 44.2748 34.7471 44.9409 34.7471C45.6233 34.7471 46.1594 34.2105 46.1594 33.5633V29.5226C46.1594 28.9907 46.6029 28.5598 47.1506 28.5598H52.4473C55.9567 28.5598 58.8001 31.322 58.8001 34.7313V38.7089C58.8001 39.0245 58.67 39.3244 58.4426 39.5453ZM44.9409 46.8218C45.6233 46.8218 46.1594 46.2852 46.1594 45.638V39.3244C46.1594 38.6773 45.6233 38.1407 44.9409 38.1407C44.2748 38.1407 43.7222 38.6773 43.7222 39.3244V45.638C43.7222 46.2852 44.2748 46.8218 44.9409 46.8218Z" fill="white"/>
</svg>
