<svg width="28" height="26" viewBox="0 0 28 26" fill="none" xmlns="http://www.w3.org/2000/svg">
<path d="M16.8 7.93479L21 12.1037V26H18.2V17.6622H8.4L5.6 21.8311V26H2.8V17.6622L4.2 16.2726V12.1037L0 7.93479L1.4 6.54516L4.2 9.32443H7V13.4933C7 13.8619 7.1475 14.2153 7.41005 14.4759C7.6726 14.7365 8.0287 14.883 8.4 14.883H14C14.3713 14.883 14.7274 14.7365 14.9899 14.4759C15.2525 14.2153 15.4 13.8619 15.4 13.4933V9.32443L16.8 7.93479ZM23.8 3.7659V0.986638L18.2 6.54516L22.4 10.7141L23.8 9.32443L25.2 10.7141L28 7.93479L23.8 3.7659ZM13.3 10.0192L3.5 0.291823C3.122 -0.0972742 2.506 -0.0972742 2.1 0.291823C1.708 0.667023 1.708 1.27846 2.1 1.68145L11.9 11.4089C12.278 11.798 12.894 11.798 13.3 11.4089C13.692 11.0337 13.692 10.4222 13.3 10.0192Z" fill="#0047BA"/>
</svg>
