<svg width="86" height="86" viewBox="0 0 86 86" fill="none" xmlns="http://www.w3.org/2000/svg">
<g clip-path="url(#clip0_1056_206)">
<circle cx="43" cy="43" r="43" fill="#FACD49"/>
<path d="M10.135 86.4159H30.0894C31.9443 85.4077 31.0933 81.5748 27.7182 82.0028L23.4921 83.1917L6.94151 81.5748V83.2487C6.94151 84.9988 8.36614 86.4159 10.1254 86.4159H10.135Z" fill="#EBC17A"/>
<path d="M6.94151 74.5841C6.94151 80.3193 4.87627 85.7311 17.0096 84.9607C23.5686 84.5518 28.9134 80.3098 28.9134 74.5841C28.9134 68.8584 23.5877 64.2075 17.0096 64.2075C10.4314 64.2075 6.94151 68.8584 6.94151 74.5841Z" fill="#EBC17A"/>
<path d="M49.5562 84.0001L53.6676 82.231C53.6676 82.231 48.3419 75.3355 47.9499 73.9183L41.0467 52.233L29.8121 56.8744L43.2936 78.2744C45.2345 79.8342 49.5562 84.0001 49.5562 84.0001Z" fill="#EBC17A"/>
<path d="M52.482 86.3017L56.0961 86.4159C59.4044 86.4159 58.9072 84.8085 57.8363 83.7432C56.7654 82.678 53.811 82.5258 53.1704 81.5747L48.6861 82.0978C48.667 81.4796 49.2885 85.5408 52.482 86.3017Z" fill="#EBC17A"/>
<path d="M45.9038 22.0067L52.721 23.8994C54.203 20.561 54.6715 17.6506 53.6963 14.6832C52.0039 13.4657 49.6518 20.8939 45.9038 22.0067Z" fill="#EBC17A"/>
<path d="M48.667 86.3017L52.2812 86.4159C55.5894 86.4159 55.0922 84.8085 54.0213 83.7432C52.9505 82.678 49.996 82.5258 49.365 81.5747L44.8807 82.0978C44.8616 81.4796 45.4831 85.5408 48.6766 86.3017H48.667Z" fill="#EBC17A"/>
<path d="M57.5399 38.3753C58.3144 38.6607 58.9837 38.965 59.8346 39.6783C60.4657 40.211 60.6091 40.4392 60.7238 41.2572C60.8385 42.1037 61.2114 43.0643 60.9437 43.8442C60.7621 44.3863 60.0736 44.7002 59.8346 44.3007C59.5956 43.9013 59.8059 41.3903 59.5956 40.8102C59.4044 40.2871 59.1271 39.9542 58.9454 39.9066C58.0658 39.6879 58.4673 39.5642 58.0084 39.393C56.9375 39.0126 55.0635 38.3087 54.0596 37.7761C55.0062 37.9283 56.6603 38.0329 57.559 38.3658L57.5399 38.3753Z" fill="#EBC17A"/>
<path d="M57.865 39.3931L58.5916 39.783L58.6968 38.3278L57.865 39.3931Z" fill="#EBC17A"/>
<path d="M57.1957 39.2219L57.8554 39.5833L57.865 38.6322L57.1957 39.2219Z" fill="#EBC17A"/>
<path d="M56.5933 39.0602L57.2531 39.4216V38.461L56.5933 39.0602Z" fill="#EBC17A"/>
<path d="M55.8858 38.6893L56.5455 39.0507V38.0901L55.8858 38.6893Z" fill="#EBC17A"/>
<path d="M29.2671 36.6919L31.4089 40.2681L34.2773 45.0807L41.8403 46.0698L45.6839 49.1324C45.6552 48.9802 45.6456 48.8186 45.6456 48.6474C45.6456 47.5441 46.1715 45.9557 46.8695 44.3959C48.0073 41.8564 49.6327 39.374 50.3211 39.0316C50.3976 38.9841 50.4645 38.9746 50.5219 38.9936L56.3256 41.4094C56.9662 41.6187 57.6451 41.5901 58.2666 41.3619C58.5821 41.2477 58.888 41.067 59.1653 40.8387L59.1844 40.8197C59.4713 40.5819 59.4139 40.1159 59.0793 39.9542L54.1934 37.5194C53.6867 37.2721 53.4763 36.6729 53.7058 36.1688V36.1498C53.9066 35.7408 54.3464 35.4935 54.7958 35.5506L61.2879 36.5207C62.7891 36.7109 64.2806 36.1117 65.2176 34.9419L65.9538 34.0288C66.3267 33.5532 66.2311 32.8494 65.7244 32.5165L57.473 27.1333L57.0045 25.8968C56.9567 25.7732 56.9089 25.659 56.8515 25.5449C56.2874 24.2514 55.3886 23.1101 54.203 22.3302C51.2677 20.4089 47.7778 19.6766 45.4162 21.4266L40.0618 26.1156L39.7846 26.3629L29.3723 36.5778L29.248 36.7014L29.2671 36.6919Z" fill="#EBC17A"/>
<path d="M46.0377 24.0326C47.9212 24.9742 50.9235 24.1372 51.1434 23.3573C52.2334 19.8763 52.3672 16.9278 51.0573 14.0935C50.7036 13.8938 50.3785 14.027 50.0534 14.3694C48.906 15.6058 47.8161 19.6195 45.6648 21.4741C45.5213 21.5978 45.4066 21.75 45.3206 21.9117C44.9381 22.644 45.2345 23.6237 46.0377 24.0326Z" fill="#EBC17A"/>
<path d="M-3.8147e-06 82.4308L5.41169 79.8723L21.8476 72.0922L26.5804 70.5895C33.0534 68.5351 38.6563 64.4263 42.5478 58.9193C42.9876 58.3011 43.4083 57.6639 43.8003 57.0076L43.8864 56.8554C45.3779 54.3635 45.9898 51.4722 45.6456 48.6379C45.5692 47.9626 45.4353 47.3063 45.2536 46.65L45.0815 46.0318L33.302 38.7368L29.5922 36.4351L29.3914 36.5778L26.2458 38.8224C21.4364 42.2559 17.2581 46.4979 13.9117 51.3485L9.28402 58.0443C5.66985 63.2849 3.06918 69.1628 1.63498 75.3545L1.16647 77.3709L-3.8147e-06 82.4308Z" fill="#EBC17A"/>
<path d="M5.40213 79.8722L21.838 72.0921L26.5709 70.5894C33.0439 68.535 38.6468 64.4262 42.5382 58.9193C42.433 58.9858 42.3374 59.0334 42.2323 59.0809C41.1805 59.6041 39.9567 59.9465 38.8189 59.6611C37.6715 59.3758 36.6771 58.3106 36.7919 57.1407C36.3234 57.873 35.8644 58.6054 35.3672 59.3092C33.5315 61.9153 31.1316 64.2074 28.1867 65.4534C25.2514 66.7088 21.7233 66.804 18.9218 65.2727C19.7632 65.9289 20.0309 67.1178 19.811 68.1545C19.5911 69.1912 18.9601 70.0948 18.243 70.8842C16.7896 72.4726 14.9826 73.69 13.185 74.8884C10.6226 76.6004 8.06018 78.3124 5.40213 79.8722Z" fill="#EBC17A"/>
<path d="M50.3307 39.0126C50.4072 38.965 50.4741 38.9555 50.5315 38.9745L56.3352 41.3903C57.32 41.7042 58.3909 41.4949 59.1749 40.8197L59.194 40.8006C59.4808 40.5629 59.4235 40.0968 59.0888 39.9351L54.203 37.5003C53.6963 37.253 53.4859 36.6538 53.7154 36.1497V36.1307C53.9162 35.7217 54.356 35.4744 54.8054 35.5315L61.2975 36.5016C62.7986 36.6918 64.2902 36.0926 65.2272 34.9228L65.7052 34.3331L65.9634 34.0097C66.3363 33.5342 66.2407 32.8303 65.7339 32.4975L64.7587 31.8602L57.4825 27.1142L57.014 25.8777C56.9662 25.7541 56.9184 25.64 56.861 25.5258C56.5933 25.7065 56.3639 25.9158 56.1726 26.1821C55.8571 26.6101 55.6563 27.1237 55.379 27.5802C55.0826 28.0653 54.1074 29.1115 53.658 29.4634C53.505 29.5775 53.572 29.8248 53.7632 29.8534C55.0253 30.0151 56.8897 29.4159 58.1614 29.2732C61.527 33.011 56.4977 34.4282 55.991 34.2665C54.1361 33.6958 52.7975 34.4853 51.5258 35.95C50.7896 36.7965 50.3785 37.8902 50.3402 39.003L50.3307 39.0126Z" fill="#EBC17A"/>
<path d="M50.4072 22.606C50.6175 22.5584 50.8279 22.4823 50.9617 22.3206C51.0956 22.1589 51.1243 21.9497 51.153 21.7405C51.4972 19.3912 51.8414 16.9469 51.1147 14.6927C51.1051 14.6642 51.0956 14.6262 51.0669 14.5976C51 14.5215 50.8661 14.5501 50.7992 14.6262C50.7323 14.7022 50.7227 14.8164 50.7131 14.9115C50.4167 17.2607 49.0303 19.3151 48.036 21.4741C47.9021 21.769 47.7969 22.1589 48.036 22.3777C48.1411 22.4728 48.2846 22.5013 48.428 22.5204C49.0781 22.6345 49.757 22.7486 50.4072 22.606Z" fill="#EBC17A"/>
<path d="M41.6968 24.6889C41.888 25.0504 42.0888 25.4023 42.2705 25.7637C43.0067 27.2664 43.2171 29.026 42.8346 30.6619C43.5613 30.2719 44.1541 29.6252 44.4887 28.8643C45.6456 29.4635 45.8847 30.9758 46.0185 32.2598C46.2384 34.6185 46.6878 37.2341 48.6001 38.6512C48.036 36.7585 47.6057 34.8278 47.2806 32.878C47.6248 32.8495 47.9786 32.8685 48.3228 32.9446C47.7204 31.8223 47.9308 30.3956 48.6096 29.3208C49.2885 28.2461 50.3689 27.4757 51.5163 26.905C49.604 25.8683 47.9595 24.318 46.8026 22.4824C46.5157 22.0163 46.248 21.5313 45.8751 21.1413L41.7159 24.6889H41.6968Z" fill="#EBC17A"/>
<path d="M48.4375 25.4688C47.8543 25.5734 47.2711 25.6781 46.6878 25.7827C47.1276 25.2405 47.1659 24.4036 46.7643 23.8234C46.487 23.4239 46.0377 23.1386 45.856 22.6821C45.6265 22.0924 46.0377 21.3505 46.6591 21.2269C46.946 22.4158 47.8925 23.4334 49.059 23.8044C50.5315 24.2799 52.176 23.7758 53.6867 24.1278C53.7345 24.8886 52.2429 24.9647 52.2334 25.7351C52.2334 26.4389 53.572 26.6672 53.4285 27.3615C53.3903 27.5327 53.266 27.6659 53.1513 27.799C52.2621 28.7311 51.3251 29.6917 50.1108 30.1483C50.1012 29.5205 50.0821 28.8928 50.0725 28.2651C50.0725 28.1414 50.0725 28.0178 49.9865 27.9227C49.8335 27.7229 49.5084 27.8181 49.3076 27.9797C49.1164 28.1414 48.9443 28.3697 48.7053 28.4173C48.3228 28.4933 47.9977 28.0749 47.9977 27.6944C47.9977 27.314 48.1889 26.9525 48.3515 26.6006C48.5045 26.2487 48.6192 25.8302 48.4471 25.4878L48.4375 25.4688Z" fill="#EBC17A"/>
<path d="M55.3312 28.4173C56.2013 29.3208 57.3773 28.7882 57.1574 27.2569L55.8953 27.6849L55.3312 28.4173Z" fill="#EBC17A"/>
<path d="M57.1861 27.5422C57.1861 27.5422 57.1861 27.5897 57.1861 27.6658C57.1861 27.7038 57.1861 27.7514 57.1861 27.8085C57.1861 27.8655 57.167 27.9226 57.1574 27.9892C57.1383 28.0558 57.1192 28.1223 57.0905 28.1889C57.0523 28.2555 57.0236 28.3221 56.9758 28.3886C56.9375 28.4552 56.8706 28.5028 56.8037 28.5598L56.6985 28.6264L56.5838 28.6835C56.5073 28.712 56.4212 28.7406 56.3352 28.7501C56.2491 28.7691 56.1726 28.7501 56.0866 28.7501C56.0101 28.731 55.924 28.731 55.8571 28.7025C55.7806 28.6835 55.7137 28.655 55.6563 28.6264C55.599 28.5979 55.5416 28.5598 55.4938 28.5408C55.446 28.5123 55.4077 28.4838 55.379 28.4552C55.3121 28.4077 55.2834 28.3791 55.2834 28.3791C55.2834 28.3791 55.3121 28.4172 55.3599 28.4742C55.3886 28.5028 55.4173 28.5408 55.4651 28.5789C55.5033 28.6169 55.5512 28.6645 55.6181 28.693C55.6754 28.731 55.7424 28.7691 55.8189 28.7976C55.8954 28.8357 55.9814 28.8452 56.0675 28.8737C56.1535 28.8737 56.2491 28.8927 56.3447 28.8737C56.4404 28.8737 56.536 28.8357 56.6316 28.8071L56.7654 28.7406L56.8802 28.655C56.9471 28.5884 57.0236 28.5218 57.0714 28.4457C57.1288 28.3696 57.1574 28.284 57.1861 28.2079C57.2148 28.1318 57.2244 28.0558 57.2339 27.9797C57.2339 27.9131 57.2339 27.8465 57.2339 27.7894C57.2339 27.7324 57.2244 27.6848 57.2148 27.6468C57.1957 27.5707 57.1957 27.5231 57.1957 27.5231L57.1861 27.5422Z" fill="#EBC17A"/>
<path d="M57.3678 27.2188C57.3678 27.2188 57.32 27.2188 57.2531 27.2188C57.1766 27.2188 57.0714 27.2188 56.9471 27.2378C56.8802 27.2473 56.8132 27.2569 56.7367 27.2759C56.6603 27.2854 56.5838 27.3139 56.5073 27.3425C56.4308 27.371 56.3447 27.39 56.2778 27.4376C56.2013 27.4756 56.1248 27.5137 56.0483 27.5612C55.9814 27.6088 55.9049 27.6563 55.838 27.7134C55.7615 27.7609 55.7041 27.818 55.6468 27.8751C55.5225 27.9797 55.4268 28.1033 55.3504 28.208C55.2643 28.3126 55.2261 28.4077 55.1878 28.4743C55.1496 28.5409 55.14 28.5789 55.14 28.5789C55.14 28.5789 55.1783 28.5504 55.2356 28.5123C55.293 28.4648 55.3695 28.3982 55.4747 28.3221C55.5225 28.2841 55.5798 28.246 55.6372 28.1985C55.6946 28.1509 55.7615 28.1224 55.8189 28.0748C55.9432 27.9797 56.077 27.9036 56.2109 27.818C56.3543 27.7419 56.4881 27.6563 56.622 27.5897C56.6889 27.5612 56.7559 27.5137 56.8132 27.4946C56.8802 27.4661 56.9375 27.4376 56.9949 27.409C57.1001 27.352 57.2052 27.3234 57.2722 27.2854C57.3391 27.2569 57.3773 27.2283 57.3773 27.2283L57.3678 27.2188Z" fill="#EBC17A"/>
<path d="M56.7463 27.9607C56.6985 28.1319 56.7176 28.2841 56.7846 28.3031C56.8515 28.3221 56.9375 28.1985 56.9853 28.0273C57.0331 27.8561 57.014 27.7039 56.9471 27.6849C56.8802 27.6658 56.7941 27.7895 56.7463 27.9607Z" fill="#EBC17A"/>
<path d="M64.9021 34.1239L65.7052 34.3426L65.9634 34.0193C66.3363 33.5437 66.2407 32.8399 65.7339 32.507L64.7587 31.8698L64.2997 32.7543C64.0129 33.2964 64.2997 33.9622 64.9021 34.1239Z" fill="#EBC17A"/>
<path d="M25.9972 56.865L30.8639 64.5785L39.4882 78.2554C41.2092 79.6345 44.8043 83.0775 45.5883 83.8289C45.6935 83.9335 45.7508 83.9811 45.7508 83.9811L45.8369 83.9431L46.4775 83.6672L49.8622 82.2025C49.8622 82.2025 44.5365 75.307 44.1445 73.8898L39.4117 58.9955L37.2508 52.2045L31.8583 54.4301L26.0067 56.8459L25.9972 56.865Z" fill="#EBC17A"/>
<path d="M31.82 54.0972C31.8391 54.2113 31.8487 54.335 31.8487 54.4491C31.8391 55.0293 31.5523 55.5809 31.3037 56.123C30.3954 58.0538 29.8121 60.1462 29.5922 62.2672C30.2615 62.2197 30.9308 62.1721 31.6001 62.1245C31.7435 62.971 31.0838 63.4085 30.6248 64.2075L39.4882 78.2649C41.2092 79.644 44.8042 83.087 45.5883 83.8384C45.6743 83.8764 45.7508 83.9145 45.8273 83.9525C45.9325 84.0096 46.0472 84.0571 46.1524 84.1142C46.3149 84.0001 46.4201 83.8574 46.4679 83.6862C46.6305 83.1441 46.2576 82.3927 45.8655 81.8886C44.5843 80.2337 43.2936 78.5882 42.0123 76.9333H43.1788C42.1844 75.0691 41.1901 73.205 40.1957 71.3408C39.2204 69.4956 38.2261 67.641 37.7002 65.6246C37.2221 63.808 37.1552 61.8392 37.8054 60.0987C37.7384 60.4125 37.7958 60.7454 37.9488 61.0213C38.5033 60.403 38.9814 59.7373 39.3925 59.0239C40.5303 57.0837 41.1901 54.8581 41.496 52.623C41.9167 49.5699 41.7351 46.4693 41.5534 43.3972C42.1558 43.6064 42.739 43.8157 43.3414 44.0249C42.7964 41.8088 42.2609 39.5928 41.7159 37.3767C41.6299 37.0248 41.5534 36.6443 41.6873 36.3114C41.8307 35.9785 42.3087 35.7693 42.5669 36.0166C41.3622 33.8671 40.1479 31.7271 38.9336 29.5776C36.6293 31.3086 35.6732 34.2951 33.7323 36.4256C31.8774 38.4609 29.0855 39.7544 27.9668 42.2749C27.1923 44.044 27.4027 46.1079 28.1102 47.9055C28.8273 49.6935 29.9938 51.2629 31.1316 52.8227C31.428 53.2126 31.7148 53.6311 31.8009 54.1067L31.82 54.0972Z" fill="#EBC17A"/>
<path d="M3.12655 81.5842V83.2582C3.12655 83.3343 3.12655 83.4008 3.13611 83.4769C3.17436 84.0952 3.39426 84.6753 3.73847 85.1319C3.84365 85.265 3.93926 85.3887 4.054 85.5028C4.63724 86.0735 5.42126 86.4254 6.3009 86.4254H26.2553C28.1102 85.4172 27.2593 81.5842 23.8841 82.0217L19.658 83.2011H19.5146L13.8543 82.64L7.49606 82.0217L6.65467 81.9361L5.86108 81.8601L3.3369 81.6128L3.09787 81.5842H3.12655Z" fill="#EBC17A"/>
<path d="M3.12655 74.5841C3.12655 80.3193 1.06131 85.7311 13.1946 84.9607C19.7536 84.5518 25.0984 80.3098 25.0984 74.5841C25.0984 68.8584 19.7728 64.2075 13.1946 64.2075C6.61642 64.2075 3.12655 68.8584 3.12655 74.5841Z" fill="#EBC17A"/>
<path d="M5.06749 84.761C5.32565 83.9525 6.05231 83.3628 6.56861 82.6685C6.92238 82.4973 7.25703 82.2881 7.51519 82.0122C7.60124 81.9266 7.67773 81.8315 7.73509 81.7364C7.64904 81.0041 7.1901 80.3288 6.54949 79.9674C7.63948 79.6725 8.02193 78.1983 7.49606 77.2091C6.97019 76.2295 5.86108 75.6969 4.77109 75.4306C4.28347 74.7743 4.42689 73.8422 4.77109 73.1003C5.10574 72.3585 5.61248 71.6927 5.81327 70.8938C5.95669 70.3516 5.94713 69.762 6.1766 69.2388C6.40607 68.7062 6.85545 68.2972 7.30484 67.9263C8.8442 66.6328 10.4887 65.4724 12.2098 64.4357C12.3341 64.3596 12.4679 64.2836 12.6018 64.217C13.1277 63.9317 13.6822 63.7034 14.2655 63.7605C14.8105 63.808 15.2885 64.1124 15.7379 64.4453C15.824 64.5023 15.9004 64.5689 15.9769 64.626C17.1912 65.5961 18.2908 66.7184 19.2469 67.9453C20.3464 68.925 20.8341 70.5419 20.4516 71.959C20.6142 71.512 21.3026 71.4739 21.6468 71.7973C21.991 72.1207 22.8802 73.0623 22.8706 73.5379C22.8419 75.8776 20.4134 77.6847 18.1856 78.4456C18.5872 78.398 19.7728 79.4728 19.6772 79.8722C19.5815 80.2622 18.3577 79.9769 18.0326 80.2242C16.7514 81.1943 15.3459 82.0027 13.8734 82.64C13.2711 82.9063 12.6592 83.1346 12.0377 83.3343C13.5197 83.5911 15.0112 83.8479 16.4932 84.1047C16.4646 84.2093 16.4454 84.3234 16.4263 84.4376C16.3976 84.5707 16.3689 84.6944 16.3403 84.8275C17.8414 84.8465 19.3425 84.8656 20.8436 84.8941C21.2356 84.8941 21.6563 84.9131 21.9719 85.1319C22.383 85.4077 22.4977 85.9498 22.383 86.4349H7.39089C6.78852 86.2637 6.19572 86.102 5.59336 85.9308C5.22047 85.6265 4.92407 85.246 5.07705 84.7705L5.06749 84.761Z" fill="#EBC17A"/>
<path d="M0.487621 79.8153C0.544991 80.5476 2.01743 80.4335 3.12654 79.7962C3.92969 79.3302 5.44994 75.8396 6.30089 75.4592C6.51124 73.7472 6.72159 72.0447 6.93194 70.3327C7.57255 70.1805 8.21315 70.0283 8.85376 69.8857C8.18447 68.868 8.63385 67.4223 9.53261 66.6043C10.4409 65.7864 11.6743 65.4535 12.8695 65.1967C15.8718 64.5499 18.9983 64.198 21.7806 62.895C24.563 61.592 27.0202 59.043 27.1158 55.9804C27.1732 54.1543 26.3987 52.4138 25.9111 50.6447C25.4235 48.8757 25.2705 46.8118 26.4083 45.3756C26.5517 47.0115 26.8672 48.9232 28.3301 49.6936C29.2385 48.6474 29.2767 47.1161 29.1715 45.737C29.0663 44.3579 28.8942 42.8837 29.5444 41.6567C29.9173 40.9624 30.6535 40.4298 31.4184 40.2871C32.0017 40.1825 32.5753 40.2871 32.996 40.7151C32.9769 40.0399 33.0821 39.3836 33.3116 38.7559C34.2008 36.2164 36.8588 34.2571 39.6029 34.4949C39.4021 32.3644 39.2109 30.2054 39.5647 28.0939C39.6794 27.4281 39.861 26.7624 40.1001 26.1251L39.8228 26.3724L29.4106 36.5873L26.2649 38.8319C21.4556 42.2654 17.2773 46.5074 13.9308 51.3581L9.30314 58.0539C5.68897 63.2945 3.08829 69.1723 1.6541 75.3641L0.506748 79.8343L0.487621 79.8153Z" fill="#EBC17A"/>
<path d="M45.6648 36.8345C45.6552 37.7 45.942 38.537 46.1715 39.3645C46.6209 41.0004 46.8599 42.6838 46.8695 44.3863C48.0073 41.8469 49.6327 39.3645 50.3211 39.0221C50.3976 38.9745 50.4645 38.965 50.5219 38.984L56.3256 41.3998C56.9662 41.6091 57.6451 41.5806 58.2666 41.3523C57.7024 41.0384 57.081 40.8007 56.4882 40.5819C53.8875 39.6213 51.1338 38.3373 49.91 35.8739C49.1164 34.276 49.0973 32.4119 48.7244 30.6618C48.6383 30.2719 48.428 29.7963 48.0264 29.8344C47.4527 31.3181 46.8886 32.8113 46.3149 34.2951C45.9994 35.113 45.6839 35.95 45.6743 36.825L45.6648 36.8345Z" fill="#EBC17A"/>
<path d="M45.1198 21.7024C45.2345 21.7975 45.5596 22.1114 45.6743 22.2065C45.7699 22.2826 45.8847 22.3682 46.009 22.3682C46.2958 22.3586 46.3436 21.9592 46.4488 21.6929C46.6496 21.2268 47.2328 21.0842 47.6153 20.7608C48.2176 20.2472 48.275 19.3722 48.5236 18.6303C48.9252 17.4509 49.91 16.4808 50.0438 15.2539C50.0725 14.959 50.0534 14.6642 50.0534 14.3693C48.906 15.6058 47.8734 19.3722 45.7126 21.2268C45.5692 21.3505 45.1963 21.5407 45.1102 21.7024H45.1198Z" fill="#EBC17A"/>
<path d="M10.135 86.4159H30.0894C31.9443 85.4077 31.0933 81.5748 27.7182 82.0028L23.4921 83.1917L6.94151 81.5748V83.2487C6.94151 84.9988 8.36614 86.4159 10.1254 86.4159H10.135Z" fill="#BD8C48"/>
<path d="M6.94151 74.5841C6.94151 80.3193 4.87627 85.7311 17.0096 84.9607C23.5686 84.5518 28.9134 80.3098 28.9134 74.5841C28.9134 68.8584 23.5877 64.2075 17.0096 64.2075C10.4314 64.2075 6.94151 68.8584 6.94151 74.5841Z" fill="#BD8C48"/>
<path d="M49.5562 84.0001L53.6676 82.231C53.6676 82.231 48.3419 75.3355 47.9499 73.9183L41.0467 52.233L29.8121 56.8744L43.2936 78.2744C45.2345 79.8342 49.5562 84.0001 49.5562 84.0001Z" fill="#BD8C48"/>
<path d="M52.482 86.3017L56.0961 86.4159C59.4044 86.4159 58.9072 84.8085 57.8363 83.7432C56.7654 82.678 53.811 82.5258 53.1704 81.5747L48.6861 82.0978C48.667 81.4796 49.2885 85.5408 52.482 86.3017Z" fill="#BD8C48"/>
<path d="M45.9038 22.0067L52.721 23.8994C54.203 20.561 54.6715 17.6506 53.6963 14.6832C52.0039 13.4657 49.6518 20.8939 45.9038 22.0067Z" fill="#E0A655"/>
<path d="M48.667 86.3017L52.2812 86.4159C55.5894 86.4159 55.0922 84.8085 54.0213 83.7432C52.9505 82.678 49.996 82.5258 49.365 81.5747L44.8807 82.0978C44.8616 81.4796 45.4831 85.5408 48.6766 86.3017H48.667Z" fill="#EBC17A"/>
<path d="M57.5399 38.3753C58.3144 38.6607 58.9837 38.965 59.8346 39.6783C60.4657 40.211 60.6091 40.4392 60.7238 41.2572C60.8385 42.1037 61.2114 43.0643 60.9437 43.8442C60.7621 44.3863 60.0736 44.7002 59.8346 44.3007C59.5956 43.9013 59.8059 41.3903 59.5956 40.8102C59.4044 40.2871 59.1271 39.9542 58.9454 39.9066C58.0658 39.6879 58.4673 39.5642 58.0084 39.393C56.9375 39.0126 55.0635 38.3087 54.0596 37.7761C55.0062 37.9283 56.6603 38.0329 57.559 38.3658L57.5399 38.3753Z" fill="#E94E1B"/>
<path d="M57.865 39.3931L58.5916 39.783L58.6968 38.3278L57.865 39.3931Z" fill="#EDEDED"/>
<path d="M57.1957 39.2219L57.8554 39.5833L57.865 38.6322L57.1957 39.2219Z" fill="#EDEDED"/>
<path d="M56.5933 39.0602L57.2531 39.4216V38.461L56.5933 39.0602Z" fill="#EDEDED"/>
<path d="M55.8858 38.6893L56.5455 39.0507V38.0901L55.8858 38.6893Z" fill="#EDEDED"/>
<path d="M29.2671 36.6919L31.4089 40.2681L34.2773 45.0807L41.8403 46.0698L45.6839 49.1324C45.6552 48.9802 45.6456 48.8186 45.6456 48.6474C45.6456 47.5441 46.1715 45.9557 46.8695 44.3959C48.0073 41.8564 49.6327 39.374 50.3211 39.0316C50.3976 38.9841 50.4645 38.9746 50.5219 38.9936L56.3256 41.4094C56.9662 41.6187 57.6451 41.5901 58.2666 41.3619C58.5821 41.2477 58.888 41.067 59.1653 40.8387L59.1844 40.8197C59.4713 40.5819 59.4139 40.1159 59.0793 39.9542L54.1934 37.5194C53.6867 37.2721 53.4763 36.6729 53.7058 36.1688V36.1498C53.9066 35.7408 54.3464 35.4935 54.7958 35.5506L61.2879 36.5207C62.7891 36.7109 64.2806 36.1117 65.2176 34.9419L65.9538 34.0288C66.3267 33.5532 66.2311 32.8494 65.7244 32.5165L57.473 27.1333L57.0045 25.8968C56.9567 25.7732 56.9089 25.659 56.8515 25.5449C56.2874 24.2514 55.3886 23.1101 54.203 22.3302C51.2677 20.4089 47.7778 19.6766 45.4162 21.4266L40.0618 26.1156L39.7846 26.3629L29.3723 36.5778L29.248 36.7014L29.2671 36.6919Z" fill="#EBC17A"/>
<path d="M46.0377 24.0326C47.9212 24.9742 50.9235 24.1372 51.1434 23.3573C52.2334 19.8763 52.3672 16.9278 51.0573 14.0935C50.7036 13.8938 50.3785 14.027 50.0534 14.3694C48.906 15.6058 47.8161 19.6195 45.6648 21.4741C45.5213 21.5978 45.4066 21.75 45.3206 21.9117C44.9381 22.644 45.2345 23.6237 46.0377 24.0326Z" fill="#EBC17A"/>
<path d="M-3.8147e-06 82.4307L1.74015 82.3737L4.45556 82.2881L21.8476 72.0922L26.5804 70.5894C33.0438 68.535 38.6563 64.4262 42.5478 58.9288C42.9876 58.3106 43.4083 57.6733 43.8003 57.0171L43.8864 56.8649C45.3779 54.373 45.9898 51.4816 45.6456 48.6473C45.5692 47.972 45.4353 47.3158 45.2536 46.6595L45.0815 46.0508L33.302 38.7463L29.5922 36.4446L29.3914 36.5777L26.2553 38.8224C21.4364 42.2559 17.2677 46.4978 13.9213 51.358L9.29358 58.0538C5.67941 63.2944 3.07874 69.1723 1.64454 75.364L1.17604 77.3898L0.81271 78.9782L0.0573692 82.25L0.00955963 82.4497L-3.8147e-06 82.4307Z" fill="#EBC17A"/>
<path opacity="0.15" d="M5.40213 79.8722L21.838 72.0921L26.5709 70.5894C33.0439 68.535 38.6468 64.4262 42.5382 58.9193C42.433 58.9858 42.3374 59.0334 42.2323 59.0809C41.1805 59.6041 39.9567 59.9465 38.8189 59.6611C37.6715 59.3758 36.6771 58.3106 36.7919 57.1407C36.3234 57.873 35.8644 58.6054 35.3672 59.3092C33.5315 61.9153 31.1316 64.2074 28.1867 65.4534C25.2514 66.7088 21.7233 66.804 18.9218 65.2727C19.7632 65.9289 20.0309 67.1178 19.811 68.1545C19.5911 69.1912 18.9601 70.0948 18.243 70.8842C16.7896 72.4726 14.9826 73.69 13.185 74.8884C10.6226 76.6004 8.06018 78.3124 5.40213 79.8722Z" fill="#1D1D1B"/>
<path d="M50.3307 39.0126C50.4072 38.965 50.4741 38.9555 50.5315 38.9745L56.3352 41.3903C57.32 41.7042 58.3909 41.4949 59.1749 40.8197L59.194 40.8006C59.4808 40.5629 59.4235 40.0968 59.0888 39.9351L54.203 37.5003C53.6963 37.253 53.4859 36.6538 53.7154 36.1497V36.1307C53.9162 35.7217 54.356 35.4744 54.8054 35.5315L61.2975 36.5016C62.7986 36.6918 64.2902 36.0926 65.2272 34.9228L65.7052 34.3331L65.9634 34.0097C66.3363 33.5342 66.2407 32.8303 65.7339 32.4975L64.7587 31.8602L57.4825 27.1142L57.014 25.8777C56.9662 25.7541 56.9184 25.64 56.861 25.5258C56.5933 25.7065 56.3639 25.9158 56.1726 26.1821C55.8571 26.6101 55.6563 27.1237 55.379 27.5802C55.0826 28.0653 54.1074 29.1115 53.658 29.4634C53.505 29.5775 53.572 29.8248 53.7632 29.8534C55.0253 30.0151 56.8897 29.4159 58.1614 29.2732C61.527 33.011 56.4977 34.4282 55.991 34.2665C54.1361 33.6958 52.7975 34.4853 51.5258 35.95C50.7896 36.7965 50.3785 37.8902 50.3402 39.003L50.3307 39.0126Z" fill="#3C3C3B"/>
<path opacity="0.5" d="M50.4072 22.606C50.6175 22.5584 50.8279 22.4823 50.9617 22.3206C51.0956 22.1589 51.1243 21.9497 51.153 21.7405C51.4972 19.3912 51.8414 16.9469 51.1147 14.6927C51.1051 14.6642 51.0956 14.6262 51.0669 14.5976C51 14.5215 50.8661 14.5501 50.7992 14.6262C50.7323 14.7022 50.7227 14.8164 50.7131 14.9115C50.4167 17.2607 49.0303 19.3151 48.036 21.4741C47.9021 21.769 47.7969 22.1589 48.036 22.3777C48.1411 22.4728 48.2846 22.5013 48.428 22.5204C49.0781 22.6345 49.757 22.7486 50.4072 22.606Z" fill="#3C3C3B"/>
<path opacity="0.75" d="M41.6968 24.6889C41.888 25.0504 42.0888 25.4023 42.2705 25.7637C43.0067 27.2664 43.2171 29.026 42.8346 30.6619C43.5613 30.2719 44.1541 29.6252 44.4887 28.8643C45.6456 29.4635 45.8847 30.9758 46.0185 32.2598C46.2384 34.6185 46.6878 37.2341 48.6001 38.6512C48.036 36.7585 47.6057 34.8278 47.2806 32.878C47.6248 32.8495 47.9786 32.8685 48.3228 32.9446C47.7204 31.8223 47.9308 30.3956 48.6096 29.3208C49.2885 28.2461 50.3689 27.4757 51.5163 26.905C49.604 25.8683 47.9595 24.318 46.8026 22.4824C46.5157 22.0163 46.248 21.5313 45.8751 21.1413L41.7159 24.6889H41.6968Z" fill="#E0A655"/>
<path d="M48.4375 25.4688C47.8543 25.5734 47.2711 25.6781 46.6878 25.7827C47.1276 25.2405 47.1659 24.4036 46.7643 23.8234C46.487 23.4239 46.0377 23.1386 45.856 22.6821C45.6265 22.0924 46.0377 21.3505 46.6591 21.2269C46.946 22.4158 47.8925 23.4334 49.059 23.8044C50.5315 24.2799 52.176 23.7758 53.6867 24.1278C53.7345 24.8886 52.2429 24.9647 52.2334 25.7351C52.2334 26.4389 53.572 26.6672 53.4285 27.3615C53.3903 27.5327 53.266 27.6659 53.1513 27.799C52.2621 28.7311 51.3251 29.6917 50.1108 30.1483C50.1012 29.5205 50.0821 28.8928 50.0725 28.2651C50.0725 28.1414 50.0725 28.0178 49.9865 27.9227C49.8335 27.7229 49.5084 27.8181 49.3076 27.9797C49.1164 28.1414 48.9443 28.3697 48.7053 28.4173C48.3228 28.4933 47.9977 28.0749 47.9977 27.6944C47.9977 27.314 48.1889 26.9525 48.3515 26.6006C48.5045 26.2487 48.6192 25.8302 48.4471 25.4878L48.4375 25.4688Z" fill="#3C3C3B"/>
<path d="M55.3312 28.4173C56.2013 29.3208 57.3773 28.7882 57.1574 27.2569L55.8953 27.6849L55.3312 28.4173Z" fill="#1D1D1B"/>
<path d="M57.1861 27.5422C57.1861 27.5422 57.1861 27.5897 57.1861 27.6658C57.1861 27.7038 57.1861 27.7514 57.1861 27.8085C57.1861 27.8655 57.167 27.9226 57.1574 27.9892C57.1383 28.0558 57.1192 28.1223 57.0905 28.1889C57.0523 28.2555 57.0236 28.3221 56.9758 28.3886C56.9375 28.4552 56.8706 28.5028 56.8037 28.5598L56.6985 28.6264L56.5838 28.6835C56.5073 28.712 56.4212 28.7406 56.3352 28.7501C56.2491 28.7691 56.1726 28.7501 56.0866 28.7501C56.0101 28.731 55.924 28.731 55.8571 28.7025C55.7806 28.6835 55.7137 28.655 55.6563 28.6264C55.599 28.5979 55.5416 28.5598 55.4938 28.5408C55.446 28.5123 55.4077 28.4838 55.379 28.4552C55.3121 28.4077 55.2834 28.3791 55.2834 28.3791C55.2834 28.3791 55.3121 28.4172 55.3599 28.4742C55.3886 28.5028 55.4173 28.5408 55.4651 28.5789C55.5033 28.6169 55.5512 28.6645 55.6181 28.693C55.6754 28.731 55.7424 28.7691 55.8189 28.7976C55.8954 28.8357 55.9814 28.8452 56.0675 28.8737C56.1535 28.8737 56.2491 28.8927 56.3447 28.8737C56.4404 28.8737 56.536 28.8357 56.6316 28.8071L56.7654 28.7406L56.8802 28.655C56.9471 28.5884 57.0236 28.5218 57.0714 28.4457C57.1288 28.3696 57.1574 28.284 57.1861 28.2079C57.2148 28.1318 57.2244 28.0558 57.2339 27.9797C57.2339 27.9131 57.2339 27.8465 57.2339 27.7894C57.2339 27.7324 57.2244 27.6848 57.2148 27.6468C57.1957 27.5707 57.1957 27.5231 57.1957 27.5231L57.1861 27.5422Z" fill="#575756"/>
<path d="M57.3678 27.2188C57.3678 27.2188 57.32 27.2188 57.2531 27.2188C57.1766 27.2188 57.0714 27.2188 56.9471 27.2378C56.8802 27.2473 56.8132 27.2569 56.7367 27.2759C56.6603 27.2854 56.5838 27.3139 56.5073 27.3425C56.4308 27.371 56.3447 27.39 56.2778 27.4376C56.2013 27.4756 56.1248 27.5137 56.0483 27.5612C55.9814 27.6088 55.9049 27.6563 55.838 27.7134C55.7615 27.7609 55.7041 27.818 55.6468 27.8751C55.5225 27.9797 55.4268 28.1033 55.3504 28.208C55.2643 28.3126 55.2261 28.4077 55.1878 28.4743C55.1496 28.5409 55.14 28.5789 55.14 28.5789C55.14 28.5789 55.1783 28.5504 55.2356 28.5123C55.293 28.4648 55.3695 28.3982 55.4747 28.3221C55.5225 28.2841 55.5798 28.246 55.6372 28.1985C55.6946 28.1509 55.7615 28.1224 55.8189 28.0748C55.9432 27.9797 56.077 27.9036 56.2109 27.818C56.3543 27.7419 56.4881 27.6563 56.622 27.5897C56.6889 27.5612 56.7559 27.5137 56.8132 27.4946C56.8802 27.4661 56.9375 27.4376 56.9949 27.409C57.1001 27.352 57.2052 27.3234 57.2722 27.2854C57.3391 27.2569 57.3773 27.2283 57.3773 27.2283L57.3678 27.2188Z" fill="#575756"/>
<path d="M56.7463 27.9607C56.6985 28.1319 56.7176 28.2841 56.7846 28.3031C56.8515 28.3221 56.9375 28.1985 56.9853 28.0273C57.0331 27.8561 57.014 27.7039 56.9471 27.6849C56.8802 27.6658 56.7941 27.7895 56.7463 27.9607Z" fill="#F6F6F6"/>
<path d="M64.9021 34.1239L65.7052 34.3426L65.9634 34.0193C66.3363 33.5437 66.2407 32.8399 65.7339 32.507L64.7587 31.8698L64.2997 32.7543C64.0129 33.2964 64.2997 33.9622 64.9021 34.1239Z" fill="#1D1D1B"/>
<path d="M25.9972 56.865L30.8639 64.5785L39.4882 78.2554C41.2092 79.6345 44.8043 83.0775 45.5883 83.8289C45.6935 83.9335 45.7508 83.9811 45.7508 83.9811L45.8369 83.9431L46.4775 83.6672L49.8622 82.2025C49.8622 82.2025 44.5365 75.307 44.1445 73.8898L39.4117 58.9955L37.2508 52.2045L31.8583 54.4301L26.0067 56.8459L25.9972 56.865Z" fill="#EBC17A"/>
<path opacity="0.75" d="M31.82 54.0972C31.8391 54.2113 31.8487 54.335 31.8487 54.4491C31.8391 55.0293 31.5523 55.5809 31.3037 56.123C30.3954 58.0538 29.8121 60.1462 29.5922 62.2672C30.2615 62.2197 30.9308 62.1721 31.6001 62.1245C31.7435 62.971 31.0838 63.4085 30.6248 64.2075L39.4882 78.2649C41.2092 79.644 44.8042 83.087 45.5883 83.8384C45.6743 83.8764 45.7508 83.9145 45.8273 83.9525C45.9325 84.0096 46.0472 84.0571 46.1524 84.1142C46.3149 84.0001 46.4201 83.8574 46.4679 83.6862C46.6305 83.1441 46.2576 82.3927 45.8655 81.8886C44.5843 80.2337 43.2936 78.5882 42.0123 76.9333H43.1788C42.1844 75.0691 41.1901 73.205 40.1957 71.3408C39.2204 69.4956 38.2261 67.641 37.7002 65.6246C37.2221 63.808 37.1552 61.8392 37.8054 60.0987C37.7384 60.4125 37.7958 60.7454 37.9488 61.0213C38.5033 60.403 38.9814 59.7373 39.3925 59.0239C40.5303 57.0837 41.1901 54.8581 41.496 52.623C41.9167 49.5699 41.7351 46.4693 41.5534 43.3972C42.1558 43.6064 42.739 43.8157 43.3414 44.0249C42.7964 41.8088 42.2609 39.5928 41.7159 37.3767C41.6299 37.0248 41.5534 36.6443 41.6873 36.3114C41.8307 35.9785 42.3087 35.7693 42.5669 36.0166C41.3622 33.8671 40.1479 31.7271 38.9336 29.5776C36.6293 31.3086 35.6732 34.2951 33.7323 36.4256C31.8774 38.4609 29.0855 39.7544 27.9668 42.2749C27.1923 44.044 27.4027 46.1079 28.1102 47.9055C28.8273 49.6935 29.9938 51.2629 31.1316 52.8227C31.428 53.2126 31.7148 53.6311 31.8009 54.1067L31.82 54.0972Z" fill="#E0A655"/>
<path d="M3.12655 81.5842V83.2582C3.12655 83.3343 3.12655 83.4008 3.13611 83.4769C3.17436 84.0952 3.39426 84.6753 3.73847 85.1319C3.84365 85.265 3.93926 85.3887 4.054 85.5028C4.63724 86.0735 5.42126 86.4254 6.3009 86.4254H26.2553C28.1102 85.4172 27.2593 81.5842 23.8841 82.0217L19.658 83.2011H19.5146L13.8543 82.64L7.49606 82.0217L6.65467 81.9361L5.86108 81.8601L3.3369 81.6128L3.09787 81.5842H3.12655Z" fill="#EBC17A"/>
<path d="M3.12655 74.5841C3.12655 80.3193 1.06131 85.7311 13.1946 84.9607C19.7536 84.5518 25.0984 80.3098 25.0984 74.5841C25.0984 68.8584 19.7728 64.2075 13.1946 64.2075C6.61642 64.2075 3.12655 68.8584 3.12655 74.5841Z" fill="#EBC17A"/>
<path opacity="0.75" d="M5.06749 84.761C5.32565 83.9525 6.05231 83.3628 6.56861 82.6685C6.92238 82.4973 7.25703 82.2881 7.51519 82.0122C7.60124 81.9266 7.67773 81.8315 7.73509 81.7364C7.64904 81.0041 7.1901 80.3288 6.54949 79.9674C7.63948 79.6725 8.02193 78.1983 7.49606 77.2091C6.97019 76.2295 5.86108 75.6969 4.77109 75.4306C4.28347 74.7743 4.42689 73.8422 4.77109 73.1003C5.10574 72.3585 5.61248 71.6927 5.81327 70.8938C5.95669 70.3516 5.94713 69.762 6.1766 69.2388C6.40607 68.7062 6.85545 68.2972 7.30484 67.9263C8.8442 66.6328 10.4887 65.4724 12.2098 64.4357C12.3341 64.3596 12.4679 64.2836 12.6018 64.217C13.1277 63.9317 13.6822 63.7034 14.2655 63.7605C14.8105 63.808 15.2885 64.1124 15.7379 64.4453C15.824 64.5023 15.9004 64.5689 15.9769 64.626C17.1912 65.5961 18.2908 66.7184 19.2469 67.9453C20.3464 68.925 20.8341 70.5419 20.4516 71.959C20.6142 71.512 21.3026 71.4739 21.6468 71.7973C21.991 72.1207 22.8802 73.0623 22.8706 73.5379C22.8419 75.8776 20.4134 77.6847 18.1856 78.4456C18.5872 78.398 19.7728 79.4728 19.6772 79.8722C19.5815 80.2622 18.3577 79.9769 18.0326 80.2242C16.7514 81.1943 15.3459 82.0027 13.8734 82.64C13.2711 82.9063 12.6592 83.1346 12.0377 83.3343C13.5197 83.5911 15.0112 83.8479 16.4932 84.1047C16.4646 84.2093 16.4454 84.3234 16.4263 84.4376C16.3976 84.5707 16.3689 84.6944 16.3403 84.8275C17.8414 84.8465 19.3425 84.8656 20.8436 84.8941C21.2356 84.8941 21.6563 84.9131 21.9719 85.1319C22.383 85.4077 22.4977 85.9498 22.383 86.4349H7.39089C6.78852 86.2637 6.19572 86.102 5.59336 85.9308C5.22047 85.6265 4.92407 85.246 5.07705 84.7705L5.06749 84.761Z" fill="#E0A655"/>
<path d="M0.487621 79.8153C0.544991 80.5476 2.01743 80.4335 3.12654 79.7962C3.92969 79.3302 5.44994 75.8396 6.30089 75.4592C6.51124 73.7472 6.72159 72.0447 6.93194 70.3327C7.57255 70.1805 8.21315 70.0283 8.85376 69.8857C8.18447 68.868 8.63385 67.4223 9.53261 66.6043C10.4409 65.7864 11.6743 65.4535 12.8695 65.1967C15.8718 64.5499 18.9983 64.198 21.7806 62.895C24.563 61.592 27.0202 59.043 27.1158 55.9804C27.1732 54.1543 26.3987 52.4138 25.9111 50.6447C25.4235 48.8757 25.2705 46.8118 26.4083 45.3756C26.5517 47.0115 26.8672 48.9232 28.3301 49.6936C29.2385 48.6474 29.2767 47.1161 29.1715 45.737C29.0663 44.3579 28.8942 42.8837 29.5444 41.6567C29.9173 40.9624 30.6535 40.4298 31.4184 40.2871C32.0017 40.1825 32.5753 40.2871 32.996 40.7151C32.9769 40.0399 33.0821 39.3836 33.3116 38.7559C34.2008 36.2164 36.8588 34.2571 39.6029 34.4949C39.4021 32.3644 39.2109 30.2054 39.5647 28.0939C39.6794 27.4281 39.861 26.7624 40.1001 26.1251L39.8228 26.3724L29.4106 36.5873L26.2649 38.8319C21.4556 42.2654 17.2773 46.5074 13.9308 51.3581L9.30314 58.0539C5.68897 63.2945 3.08829 69.1723 1.6541 75.3641L0.506748 79.8343L0.487621 79.8153Z" fill="#3C3C3B"/>
<path opacity="0.15" d="M45.6648 36.8345C45.6552 37.7 45.942 38.537 46.1715 39.3645C46.6209 41.0004 46.8599 42.6838 46.8695 44.3863C48.0073 41.8469 49.6327 39.3645 50.3211 39.0221C50.3976 38.9745 50.4645 38.965 50.5219 38.984L56.3256 41.3998C56.9662 41.6091 57.6451 41.5806 58.2666 41.3523C57.7024 41.0384 57.081 40.8007 56.4882 40.5819C53.8875 39.6213 51.1338 38.3373 49.91 35.8739C49.1164 34.276 49.0973 32.4119 48.7244 30.6618C48.6383 30.2719 48.428 29.7963 48.0264 29.8344C47.4527 31.3181 46.8886 32.8113 46.3149 34.2951C45.9994 35.113 45.6839 35.95 45.6743 36.825L45.6648 36.8345Z" fill="#1D1D1B"/>
<path d="M45.1198 21.7024C45.2345 21.7975 45.5596 22.1114 45.6743 22.2065C45.7699 22.2826 45.8847 22.3682 46.009 22.3682C46.2958 22.3586 46.3436 21.9592 46.4488 21.6929C46.6496 21.2268 47.2328 21.0842 47.6153 20.7608C48.2176 20.2472 48.275 19.3722 48.5236 18.6303C48.9252 17.4509 49.91 16.4808 50.0438 15.2539C50.0725 14.959 50.0534 14.6642 50.0534 14.3693C48.906 15.6058 47.8734 19.3722 45.7126 21.2268C45.5692 21.3505 45.1963 21.5407 45.1102 21.7024H45.1198Z" fill="#3C3C3B"/>
</g>
<defs>
<clipPath id="clip0_1056_206">
<rect width="86" height="86" rx="43" fill="white"/>
</clipPath>
</defs>
</svg>
