<svg width="86" height="86" viewBox="0 0 86 86" fill="none" xmlns="http://www.w3.org/2000/svg">
<g clip-path="url(#clip0_1056_75)">
<circle cx="43" cy="43" r="43" fill="#FACD49"/>
<g clip-path="url(#clip1_1056_75)">
<path d="M83.64 -16.67L76.53 -3.15999C74.86 -0.439991 78.8 2.57001 80.84 -0.899992L88.7 -13.98C91.01 -18.52 85.64 -20.34 83.63 -16.66L83.64 -16.67Z" fill="#FFD2A1"/>
<path d="M76.53 -3.15997L65.73 9.98003C65.73 9.98003 67.21 11.84 67.3 11.77C70.8 9.38003 79.27 1.61003 80.55 -0.45997C82.16 -2.85997 78.46 -5.83997 76.53 -3.15997Z" fill="#FFD2A1"/>
<path d="M86.76 36.86C87.16 38.4 87.6 39.92 88.07 41.39C88.19 41.73 88.33 42.04 88.5 42.31V42.33C89.05 43.25 89.86 43.84 90.7 44.1C91.78 44.46 92.95 44.3 93.83 43.68C94.79 43.06 95.42 41.91 95.26 40.31C95.26 40.23 95.26 40.15 95.24 40.08C95.49 39.08 95.69 37.94 95.8 36.71C96.49 30.02 95.32 20.42 94.15 12.94L83.89 14.83C83.76 21.63 84.86 29.53 86.76 36.88V36.86Z" fill="#FFD2A1"/>
<path d="M71.97 35.03C71.55 36.57 71.17 38.1 70.84 39.6C70.78 39.95 70.74 40.29 70.75 40.61V40.63C70.75 41.7 71.16 42.61 71.76 43.26C72.52 44.11 73.61 44.56 74.68 44.47C75.82 44.42 76.94 43.73 77.61 42.26C77.65 42.19 77.68 42.12 77.71 42.04C78.43 41.3 79.16 40.41 79.88 39.4C83.82 33.95 87.6 25.06 90.33 17.99L80.5 14.49C76.99 20.32 73.99 27.7 71.97 35.02V35.03Z" fill="#FFD2A1"/>
<path d="M56.09 70.5L62.28 72.7C62.93 72.93 63.64 72.85 64.21 72.47L66.01 71.26L65.12 73.71L66.54 74.22C67.67 71.1 69.37 71 69.08 66.57C68.97 64.84 75.81 54.39 76.91 49.89C77.27 48.48 77.45 47.15 77.55 45.98C77.69 44.43 77.66 43.15 77.62 42.28C77.57 41.49 77.48 41.02 77.48 41.02C75.58 37.76 72.08 35.83 70.75 40.63V40.65C70.75 40.65 70.6 41.45 70.38 42.79C69.45 48.04 66.99 61.46 65.38 65.27C64.65 67.03 60.41 69.17 60.41 69.17C58.07 69.77 54.86 69.32 56.08 70.52L56.09 70.5Z" fill="#FFD2A1"/>
<path d="M69.08 66.56C69.08 66.56 68.96 66.49 68.78 66.46C67.85 66.32 66.91 66.64 66.24 67.29L64.5 68.97C63.75 69.7 62.64 69.92 61.66 69.54L60.51 69.09C60.46 69.12 60.42 69.13 60.42 69.13C58.08 69.73 54.87 69.28 56.08 70.49L62.27 72.69C62.92 72.92 63.64 72.83 64.21 72.45L66.01 71.25L65.12 73.7L66.53 74.2C67.67 71.08 69.37 70.98 69.07 66.54L69.08 66.56Z" fill="#0047BA"/>
<path opacity="0.1" d="M71.97 35.03C71.55 36.57 71.17 38.1 70.84 39.6C70.78 39.95 70.74 40.29 70.75 40.61V40.63C70.75 40.63 70.6 41.43 70.38 42.77C70.85 42.9 71.32 43.06 71.77 43.26C72.77 43.6 73.75 44.01 74.69 44.47C75.67 44.92 76.62 45.43 77.55 45.97C77.69 44.42 77.66 43.14 77.62 42.27C77.66 42.2 77.69 42.13 77.72 42.05C78.44 41.31 79.17 40.42 79.89 39.41C77.39 37.73 74.74 36.27 71.97 35.03Z" fill="#1D1D1B"/>
<path d="M83.48 -21.16C81.57 -13.4 77.81 -13.67 77.37 -9.29001C77.05 -6.11001 80.38 -4.89001 80.38 -4.89001C81.35 -0.420006 82.07 3.51999 81.8 6.51999C81.8 6.51999 91.38 4.73 92.04 4.56C90.45 0.0399952 93.24 -4.85001 93.24 -13.08C93.24 -17.52 89.17 -23.63 89.17 -23.63C89.17 -23.63 83.8 -22.41 83.49 -21.17L83.48 -21.16Z" fill="#FFD2A1"/>
<path d="M77.15 -9.27996C77.13 -9.07996 77.13 -8.88996 77.15 -8.70996C77.27 -5.95996 80.39 -4.88996 80.39 -4.88996C80.41 -3.78996 80.49 -2.72996 80.57 -1.70996V-1.68996C80.69 -0.429962 80.84 0.740036 81 1.84004C81.2 3.19004 81.37 4.45004 81.49 5.59004C81.51 5.77004 81.53 5.94003 81.55 6.10003C81.55 6.10003 81.8 6.06004 82.24 6.00004C83.24 5.86004 85.2 5.59004 87.1 5.31004C87.65 5.23004 88.18 5.15004 88.69 5.09004C90.4 4.83004 91.81 4.62004 92.04 4.56004C91.92 4.23004 91.82 3.91004 91.79 3.58004L91.77 3.56004C91.57 2.70004 91.53 1.81004 91.57 0.890036C91.57 0.640036 91.59 0.400036 91.61 0.140036C91.73 -1.18996 92 -2.62996 92.28 -4.18996C92.5 -5.32996 92.71 -6.51996 92.87 -7.83996C92.97 -8.52996 93.05 -9.20996 93.11 -9.95996C93.15 -10.29 93.17 -10.63 93.19 -10.98C93.23 -11.67 93.25 -12.35 93.25 -13.08C93.25 -17.53 90.35 -21.65 90.35 -21.65C90.35 -21.65 89.45 -21.3 88.51 -20.94C87.61 -20.63 86.86 -19.96 86.41 -19.14C86.39 -19.12 86.37 -19.08 86.35 -19.06L84.78 -16.04C84.29 -15.1 83.35 -14.47 82.27 -14.37L79.98 -14.17C78.61 -12.6 77.41 -11.58 77.18 -9.28996L77.15 -9.27996Z" fill="#D65156"/>
<path d="M70.74 39.33C76.11 38.21 89.67 41.13 95.38 40.06C95.38 40.06 96.24 34.57 96.28 28.7C96.3 25.01 96.01 21.17 94.95 18.44C95.75 16.16 96.26 12.08 93.97 7.08001C93.46 5.92001 92.73 4.77001 91.79 3.59001L91.77 3.57001L87.96 4.33001L87.16 4.49001L82.22 5.45001L81.49 5.59001L81.43 5.61001C81.43 5.69001 80.1 9.94001 78.37 15.85C75.94 24.13 70.74 32.9 70.74 39.33Z" fill="#0047BA"/>
<path opacity="0.1" d="M77.16 -8.70996C77.28 -5.95996 80.4 -4.88996 80.4 -4.88996C80.42 -3.78996 80.5 -2.72996 80.58 -1.70996V-1.68996C80.7 -0.42996 80.85 0.740038 81.01 1.84004C81.21 3.19004 81.38 4.45004 81.5 5.59004L81.44 5.61004C81.44 5.69004 79.7 11.39 78.21 16.4C79.43 13.69 82.14 10.59 82.22 7.61004C82.24 7.08004 82.24 6.53004 82.24 6.00004C82.24 5.82004 82.24 5.63004 82.22 5.45004C82.18 1.68004 81.83 -2.07996 82.18 -5.82996C80.2 -6.06996 78.36 -7.13996 77.16 -8.70996Z" fill="#1D1D1B"/>
<path d="M87.16 -13.12L95.32 -0.219997C96.84 2.58 101.42 0.670002 99.43 -2.83L92.01 -16.17C89.22 -20.44 84.97 -16.68 87.16 -13.11V-13.12Z" fill="#FFD2A1"/>
<path d="M69.15 10.38L67.64 11.73L67.34 13.05C67.31 13.46 66.75 14.93 66.5 15.37C66.04 16.3 65.15 16.62 64.15 16.79L63.42 16.88L62.9 16.72C62.9 16.72 62.55 14.18 62.67 14.08L64.4 11.29L66.98 8.77002L68.76 10.1L69.15 10.39V10.38Z" fill="#FFD2A1"/>
<path opacity="0.1" d="M69.15 10.38L67.64 11.73L67.34 13.05C67.21 13.85 66.84 14.71 66.5 15.37C66.21 14.5 63.26 16.62 63.26 16.62L63.28 14.58L63.94 13.08L67.29 11.15L69.15 10.38Z" fill="#1D1D1B"/>
<path d="M63.8616 14.3668L25.2725 37.7096L25.79 38.5652L64.3792 15.2224L63.8616 14.3668Z" fill="#1D1D1B"/>
<path d="M42.13 64.9C41.17 64.37 40.47 64.55 38.98 65.41L38.91 65.1C38.91 65.1 38.95 65.1 38.97 65.09C39.27 64.98 39.41 64.85 39.42 64.87C39.42 64.87 39.21 64.87 38.97 64.78C38.92 64.76 38.87 64.74 38.83 64.71V64.66C39.01 64.69 39.18 64.7 39.33 64.72C39.62 64.75 39.81 64.77 39.81 64.77C39.81 64.77 39.67 64.64 39.46 64.43C39.32 64.29 39.15 64.12 38.99 63.92C39.16 63.96 39.27 63.97 39.27 63.97C39.27 63.97 39.14 63.82 38.97 63.6C39.34 63.64 39.68 63.62 39.94 63.58C40.11 63.56 40.25 63.5 40.35 63.48C40.44 63.45 40.5 63.44 40.5 63.44C40.5 63.44 40.45 63.42 40.35 63.4C40.26 63.37 40.12 63.35 39.98 63.27C39.68 63.15 39.33 62.92 39.03 62.64C38.97 62.58 38.92 62.53 38.86 62.47C39.42 62.57 39.88 62.66 39.88 62.66C39.88 62.66 39.41 62.1 38.94 61.53C38.54 60.94 38.13 60.33 38.1 60.29L37.93 60.5L36.41 53.53L30.1 54.41L35.74 66.88C35.96 67.59 36.52 68.91 39.16 68.74C40.64 68.62 41.56 68.39 42.57 67.66C43.59 66.93 43.15 65.45 42.14 64.9H42.13Z" fill="#944E0F"/>
<path d="M55.9 42.69C54.34 43.48 52.88 44.74 51.47 46.26C50.02 47.98 48.85 49.58 48.08 51.28C46.49 54.72 46.51 58.53 48.94 64.42L45.77 70.59C45.33 71.46 43.07 71.57 42.43 72.61C41.96 73.37 41.96 74.63 43.57 74.63L45.5 74.55C47.5 74.49 48.72 72.59 49.31 71.38L49.39 71.28C49.59 71.55 49.78 71.8 49.99 71.95C50.26 72.19 50.44 72.34 50.44 72.34C50.44 72.34 50.37 72.12 50.26 71.78C50.12 71.47 50.11 70.99 50.06 70.58C50.06 70.54 50.06 70.51 50.06 70.47L50.12 70.4C50.51 70.84 50.82 71.18 50.82 71.18C50.82 71.18 50.82 70.51 50.84 69.87C51.12 70.42 51.35 70.85 51.35 70.85C51.35 70.85 51.44 70.05 51.53 69.21C51.63 69.38 51.73 69.54 51.83 69.67C51.94 69.84 52.1 69.94 52.18 70.02C52.27 70.1 52.31 70.14 52.31 70.14C52.31 70.14 52.29 70.08 52.25 69.97C52.22 69.86 52.14 69.73 52.11 69.53C52.08 69.41 52.07 69.27 52.06 69.12C52.29 69.41 52.51 69.68 52.69 69.9C52.98 70.26 53.17 70.5 53.17 70.5C53.17 70.5 53.09 70.2 52.97 69.75C52.94 69.64 52.91 69.53 52.87 69.4C52.97 69.53 53.03 69.61 53.03 69.61C53.03 69.61 52.99 69.35 52.93 68.96C52.89 68.73 52.86 68.45 52.84 68.15C53.09 68.49 53.26 68.71 53.26 68.71C53.26 68.71 53.21 68.43 53.13 68.02C53.06 67.72 53.02 67.33 52.98 66.93L53.03 66.87C53.08 66.93 53.12 67 53.17 67.06C53.38 67.29 53.58 67.5 53.76 67.65C54.12 67.97 54.36 68.15 54.36 68.15C54.36 68.15 54.2 67.88 54.01 67.46C53.84 67.09 53.66 66.66 53.61 66.16C53.61 66.15 53.63 66.13 53.64 66.12C53.85 66.37 54.05 66.59 54.24 66.76C54.54 67.04 54.73 67.23 54.73 67.23C54.73 67.23 54.64 66.98 54.5 66.59C54.42 66.41 54.36 66.18 54.3 65.94C54.52 66.15 54.67 66.29 54.67 66.29C54.67 66.29 54.61 66.07 54.53 65.75C54.46 65.47 54.38 65.12 54.32 64.75C54.51 64.92 54.69 65.08 54.87 65.2C55.26 65.48 55.56 65.57 55.55 65.59C55.55 65.59 55.5 65.53 55.41 65.43C55.33 65.32 55.2 65.2 55.09 64.99C55.01 64.87 54.94 64.72 54.86 64.57C54.93 64.59 55 64.61 55.07 64.62C55.38 64.69 55.58 64.73 55.58 64.73C55.58 64.73 55.44 64.58 55.23 64.35C55.01 64.14 54.79 63.79 54.58 63.47C54.48 63.3 54.39 63.13 54.32 62.96C54.78 61.08 55.85 58.91 58.2 58.31C60.19 57.42 61.73 56.4 62.92 55.33C62.94 55.23 62.96 55.13 62.98 55.03C63.71 46.94 59.35 43.59 55.87 42.66L55.9 42.69Z" fill="#944E0F"/>
<path d="M77.47 38.91C77.47 38.91 77.39 38.97 77.3 39.04C77.19 39.12 77.03 39.26 76.82 39.38C76.62 39.51 76.38 39.64 76.12 39.76C75.82 39.9 75.47 40.02 75.11 40.13C74.91 40.18 74.7 40.23 74.5 40.26C74.65 40.38 74.82 40.5 74.97 40.62C74.99 40.64 75 40.65 75.02 40.67C75.17 40.68 75.3 40.67 75.44 40.64C75.75 40.57 75.95 40.4 76.04 40.32C76.06 40.31 76.07 40.29 76.09 40.28C76.08 40.31 76.06 40.35 76.02 40.42C75.95 40.55 75.83 40.75 75.57 40.93C75.52 40.97 75.46 40.99 75.4 41.02C75.57 41.18 75.72 41.33 75.84 41.48C75.85 41.49 75.86 41.51 75.87 41.52C76.06 41.74 76.19 41.9 76.22 41.94C76.18 41.93 76.02 41.88 75.78 41.81C75.75 41.81 75.73 41.8 75.7 41.79C75.4 41.68 74.95 41.62 74.54 41.54C74.14 41.49 73.75 41.48 73.44 41.49C74.33 42.05 75.12 42.55 75.12 42.55C75.12 42.55 74.16 42.42 73.1 42.28C73.41 42.41 73.71 42.49 73.98 42.52C74.23 42.57 74.44 42.57 74.58 42.55C74.73 42.55 74.82 42.54 74.82 42.54C74.82 42.54 74.74 42.57 74.6 42.63C74.47 42.7 74.26 42.78 74 42.84C73.58 42.94 73 42.97 72.41 42.9C73.01 43.31 73.5 43.65 73.5 43.65C73.5 43.65 72.76 43.59 71.92 43.53C72.22 43.71 72.52 43.85 72.79 43.93C72.92 43.97 73.03 43.99 73.14 44C73.25 44.02 73.35 44.03 73.42 44.01C73.59 44.01 73.68 44 73.68 44C73.68 44 73.59 44.03 73.44 44.1C73.36 44.14 73.27 44.17 73.15 44.19C73.04 44.22 72.91 44.24 72.75 44.25C72.39 44.28 71.96 44.22 71.51 44.12C71.81 44.39 72.12 44.64 72.36 44.86C72.66 45.12 72.88 45.3 72.92 45.35C72.86 45.33 72.59 45.25 72.21 45.13C71.78 44.99 71.16 44.82 70.56 44.6C70.37 44.51 70.17 44.43 69.98 44.35C70.41 44.73 70.87 45.04 71.2 45.32C71.53 45.57 71.76 45.76 71.81 45.8C71.74 45.79 71.46 45.71 71.06 45.61C70.61 45.48 69.96 45.36 69.35 45.12C69.04 45.01 68.73 44.91 68.44 44.8C68.35 44.77 68.27 44.74 68.19 44.71C68.19 44.71 68.18 44.71 68.17 44.71C68.42 44.88 68.68 45.04 68.94 45.19C69.74 45.62 70.64 45.86 71.33 45.89C71.67 45.91 71.97 45.89 72.17 45.86C72.33 45.83 72.43 45.82 72.47 45.82C72.43 45.84 72.34 45.88 72.19 45.95C72 46.04 71.71 46.14 71.35 46.21C70.63 46.38 69.6 46.38 68.59 46.15C67.88 45.97 67.17 45.72 66.58 45.47C66.51 45.5 66.43 45.53 66.36 45.56C66.6 45.69 66.86 45.79 67.13 45.89C68.2 46.29 69.4 46.41 70.29 46.47C71.19 46.52 71.78 46.54 71.78 46.54C71.78 46.54 71.2 46.65 70.3 46.78C69.41 46.91 68.18 47.06 66.89 46.87C66.57 46.82 66.25 46.78 65.93 46.67C65.6 46.6 65.32 46.48 65.04 46.36C64.88 46.29 64.73 46.23 64.58 46.17C64.55 46.17 64.53 46.18 64.5 46.19C65.25 46.71 66.03 47.16 66.66 47.44C67 47.61 67.3 47.7 67.51 47.79C67.66 47.86 67.77 47.9 67.81 47.92C67.76 47.92 67.65 47.9 67.49 47.88C67.27 47.84 66.95 47.83 66.57 47.74C65.88 47.62 64.98 47.36 64.08 47.03C64.34 47.27 64.61 47.48 64.87 47.63C65.02 47.74 65.17 47.8 65.3 47.85C65.43 47.92 65.55 47.96 65.66 47.98C65.86 48.03 65.98 48.06 65.98 48.06C65.98 48.06 65.86 48.06 65.64 48.06C65.53 48.06 65.4 48.06 65.25 48.03C65.1 48.01 64.92 47.98 64.74 47.92C64.14 47.76 63.45 47.38 62.78 46.92C63.06 47.27 63.35 47.61 63.61 47.94C63.91 48.28 64.22 48.56 64.48 48.82C64.93 49.26 65.25 49.57 65.33 49.66C65.24 49.61 64.85 49.39 64.29 49.07C63.97 48.88 63.58 48.68 63.19 48.42C62.89 48.2 62.58 47.97 62.26 47.74C63.09 49.59 63.52 51.97 63.25 55.01C63.22 55.11 63.2 55.21 63.18 55.31C63.17 55.38 63.17 55.44 63.15 55.5C63.18 55.64 63.2 55.78 63.22 55.92C63.33 56.38 63.5 56.83 63.72 57.19L63.79 57.14C63.79 57.14 63.88 57.36 64.01 57.63C64.14 57.81 64.29 57.91 64.37 58.02C64.46 58.11 64.51 58.16 64.53 58.19C64.5 58.18 64.43 58.15 64.32 58.1C64.29 58.09 64.26 58.07 64.23 58.06C64.27 58.12 64.31 58.18 64.35 58.25C64.55 58.4 64.74 58.53 64.92 58.65C65.5 59.03 65.89 59.28 65.89 59.28C65.89 59.28 65.52 59.16 64.94 58.98C64.98 59.02 65.01 59.06 65.05 59.1C65.47 59.51 65.96 59.86 66.37 60.08C66.57 60.2 66.75 60.25 66.87 60.32C67 60.37 67.07 60.41 67.07 60.41C67.07 60.41 66.99 60.41 66.85 60.41C66.72 60.41 66.51 60.42 66.27 60.39C66.08 60.37 65.85 60.34 65.62 60.29C65.72 60.4 65.83 60.5 65.94 60.61C66.27 60.86 66.62 61.15 66.91 61.29C67.21 61.46 67.4 61.57 67.4 61.57C67.4 61.57 67.18 61.58 66.84 61.6C66.7 61.62 66.54 61.61 66.38 61.6C66.41 61.61 66.43 61.63 66.45 61.65C66.6 61.72 66.77 61.81 66.94 61.92C67.11 62.02 67.28 62.15 67.44 62.29C67.55 62.36 67.65 62.42 67.74 62.46L67.8 62.64C68.09 62.94 68.35 63.29 68.55 63.67C68.74 64.05 68.85 64.42 68.95 64.75C69.06 65.03 69.14 65.34 69.31 65.52C69.46 65.71 69.65 65.82 69.8 65.86C69.92 65.89 70 65.89 70.03 65.89C70 65.9 69.92 65.94 69.79 65.95C69.62 65.96 69.37 65.92 69.11 65.76C68.99 65.69 68.89 65.6 68.79 65.5C68.86 65.6 68.92 65.7 68.98 65.8C69.65 66.74 70.31 67.66 70.31 67.66C70.31 67.66 69.87 67.42 69.28 67.08C69.28 67.08 69.28 67.09 69.29 67.1C69.56 67.48 70.02 67.89 70.53 68.26C71.05 68.61 71.64 68.87 72.11 69.02C72.17 69.05 72.24 69.06 72.29 69.08C72.45 69.12 72.59 69.14 72.69 69.17C72.84 69.2 72.91 69.22 72.91 69.22C72.91 69.22 72.83 69.23 72.69 69.25C72.61 69.26 72.5 69.28 72.39 69.3C72.3 69.31 72.2 69.33 72.09 69.33C71.71 69.36 71.24 69.35 70.73 69.28C70.97 69.52 71.15 69.69 71.15 69.69C71.15 69.69 70.65 69.65 70.07 69.61L70.31 70.36H70.5C71.43 70.27 72.27 70.9 72.46 71.81L72.74 73.11C72.93 73.95 72.36 74.77 71.51 74.9H71.48C70.48 75.06 69.49 74.62 68.93 73.78L66.82 70.62H66.84L64.04 66.41C62.73 66.25 61.56 66.05 60.49 65.8C60.67 66.02 60.77 66.24 60.87 66.38C60.95 66.51 61 66.58 61.02 66.62C60.99 66.59 60.92 66.53 60.81 66.43C60.66 66.31 60.49 66.1 60.21 65.93C60.05 65.82 59.87 65.71 59.67 65.59C59.45 65.53 59.23 65.46 59.01 65.4C59.18 65.63 59.34 65.84 59.49 66.01C59.8 66.37 60 66.61 60 66.61C60 66.61 59.72 66.47 59.3 66.26C58.86 66.06 58.33 65.7 57.76 65.35C57.56 65.21 57.36 65.07 57.17 64.92C57.29 65.11 57.39 65.28 57.45 65.41C57.57 65.62 57.64 65.74 57.64 65.74C57.64 65.74 57.55 65.64 57.39 65.46C57.23 65.27 57.01 65.02 56.7 64.77C56.48 64.57 56.22 64.36 55.93 64.15C55.37 63.85 54.85 63.53 54.38 63.18C54.26 63.09 54.16 62.99 54.04 62.9C53.64 62.65 53.24 62.4 52.86 62.14C52.41 61.81 52 61.55 51.6 61.17C51.42 61 51.26 60.8 51.12 60.58C51.07 60.78 51.04 60.9 51.04 60.9C51.04 60.9 50.97 60.73 50.85 60.46C50.76 60.28 50.64 60.07 50.51 59.87C50.62 60.32 50.66 60.77 50.58 61.09C50.58 61.32 50.49 61.51 50.46 61.63C50.43 61.76 50.41 61.83 50.41 61.83C50.41 61.83 50.4 61.76 50.38 61.63C50.35 61.5 50.35 61.33 50.27 61.12C50.24 61.02 50.2 60.91 50.16 60.8C50.1 60.69 50.04 60.59 49.97 60.48C49.92 60.36 49.83 60.26 49.75 60.16C49.66 60.06 49.6 59.97 49.48 59.85L49.36 59.72C49.36 59.98 49.36 60.14 49.36 60.14C49.36 60.14 49.24 60.01 49.06 59.82C48.97 59.73 48.88 59.61 48.8 59.48C48.58 60.02 48.5 60.64 48.5 60.64C48.5 60.64 48.41 60.51 48.26 60.32C48.16 60.19 48.07 60.02 47.98 59.84C47.78 60.31 47.6 60.73 47.56 60.79C47.61 60.8 47.64 60.82 47.66 60.82C47.64 60.82 47.6 60.82 47.55 60.81C47.51 60.74 47.37 60.31 47.21 59.78C47.04 60.26 46.87 60.72 46.85 61.06C46.81 61.39 46.94 61.62 46.96 61.66C46.94 61.65 46.89 61.61 46.82 61.55C46.73 61.46 46.62 61.32 46.54 61.11C46.39 60.75 46.34 60.31 46.28 59.85C46.16 60.17 46.03 60.51 45.99 60.78C45.92 61.06 45.88 61.25 45.88 61.25C45.88 61.25 45.8 61.07 45.67 60.81C45.61 60.7 45.56 60.56 45.5 60.41C45.48 60.46 45.45 60.52 45.43 60.58C45.36 60.81 45.32 61.02 45.3 61.21C45.27 61.58 45.41 61.83 45.4 61.84C45.4 61.83 45.16 61.67 44.99 61.26C44.92 61.07 44.86 60.86 44.82 60.63C44.66 60.97 44.54 61.23 44.54 61.23C44.54 61.23 44.43 60.97 44.29 60.63C44.24 60.76 44.2 60.87 44.2 60.98C44.15 61.33 44.11 61.56 44.11 61.56C44.11 61.56 44.02 61.34 43.88 61C43.88 60.99 43.88 60.97 43.87 60.95C43.84 61.26 43.83 61.56 43.87 61.81C43.87 61.99 43.93 62.12 43.94 62.23C43.97 62.34 43.98 62.4 43.98 62.4C43.98 62.4 43.94 62.35 43.87 62.27C43.8 62.19 43.68 62.08 43.58 61.93C43.41 61.71 43.23 61.39 43.08 61.04C43.06 61.09 43.04 61.15 43.03 61.2C42.96 61.5 42.99 61.72 42.98 61.72C42.98 61.72 42.83 61.55 42.72 61.23C42.59 60.91 42.52 60.46 42.48 59.99V59.94C42.45 60.02 42.42 60.1 42.4 60.18C42.18 60.86 42.02 61.54 42.12 62.04C42.16 62.29 42.25 62.49 42.34 62.62C42.41 62.71 42.45 62.77 42.47 62.8C42.39 62.76 42.07 62.6 41.82 62.15C41.68 61.91 41.59 61.61 41.52 61.3C41.3 61.9 41.12 62.38 41.12 62.38C41.12 62.38 40.98 61.78 40.82 61.08C40.7 61.4 40.62 61.71 40.6 61.99C40.56 62.22 40.6 62.41 40.6 62.55C40.6 62.69 40.61 62.77 40.61 62.77C40.61 62.77 40.57 62.7 40.51 62.58C40.46 62.45 40.33 62.28 40.28 62.04C40.18 61.72 40.12 61.32 40.11 60.88C40.06 61.16 40.03 61.42 40.04 61.64C40.04 62.03 40.03 62.29 40.03 62.29C40.03 62.29 39.91 62.05 39.74 61.69C39.55 61.36 39.42 60.89 39.26 60.39C39.26 60.41 39.25 60.43 39.23 60.45C39.03 61.05 38.77 61.65 38.71 62.13C38.61 62.62 38.54 62.94 38.54 62.94C38.54 62.94 38.48 62.62 38.39 62.13C38.32 61.84 38.29 61.48 38.27 61.09C38.16 61.43 38.05 61.76 37.99 62.03C37.89 62.44 37.82 62.72 37.82 62.72C37.82 62.72 37.76 62.44 37.67 62.03C37.6 61.77 37.56 61.45 37.52 61.1C37.43 61.25 37.35 61.39 37.26 61.54C37.2 61.69 37.14 61.84 37.08 61.98C37.05 62.05 37.02 62.13 36.99 62.2C36.97 62.27 36.96 62.34 36.94 62.4C36.91 62.55 36.91 62.68 36.91 62.8C36.9 62.93 36.94 63.04 36.95 63.14C36.96 63.25 37 63.33 37.04 63.4C37.11 63.55 37.15 63.62 37.15 63.62C37.15 63.6 36.83 63.4 36.61 62.87C36.56 62.73 36.5 62.58 36.48 62.41C36.47 62.32 36.45 62.24 36.44 62.15C36.44 62.06 36.44 61.97 36.44 61.89C36.44 61.7 36.45 61.51 36.47 61.31C36.5 61.12 36.54 60.94 36.57 60.75C36.6 60.65 36.62 60.54 36.64 60.44L36.1 60.49C35.86 60.93 35.71 61.4 35.71 61.79C35.71 61.99 35.74 62.18 35.8 62.3C35.83 62.4 35.85 62.47 35.86 62.49C35.84 62.47 35.79 62.42 35.72 62.34C35.62 62.25 35.52 62.08 35.41 61.86C35.26 61.56 35.19 61.13 35.19 60.67C35.07 60.99 34.96 61.34 34.87 61.71C34.78 62.36 34.63 63.04 34.66 63.55V64.41C34.66 64.41 34.53 64.09 34.36 63.6C34.14 63.11 34.03 62.41 33.87 61.68C33.83 61.36 33.82 61.04 33.8 60.72H33.72C33.56 61.04 33.4 61.37 33.26 61.73C33.07 62.36 32.83 63.02 32.78 63.53C32.69 64.05 32.64 64.39 32.64 64.39C32.64 64.39 32.57 64.05 32.47 63.54C32.34 63.08 32.32 62.48 32.28 61.85C32.25 61.93 32.21 62.02 32.18 62.1C31.96 62.77 31.91 63.54 32 64.1C32.01 64.39 32.11 64.61 32.15 64.78C32.18 64.91 32.2 64.99 32.21 65.02C32.18 64.99 32.14 64.91 32.07 64.82C31.99 64.67 31.81 64.48 31.7 64.19C31.6 64 31.51 63.76 31.44 63.5C31.39 64.03 31.4 64.53 31.45 64.94C31.47 65.24 31.56 65.48 31.59 65.66C31.62 65.79 31.64 65.88 31.65 65.92C31.62 65.89 31.58 65.81 31.51 65.7C31.43 65.54 31.27 65.33 31.15 65.03C30.89 64.48 30.67 63.69 30.54 62.87C30.46 63.35 30.39 63.8 30.39 64.18C30.36 64.52 30.4 64.79 30.44 64.99C30.47 65.19 30.48 65.3 30.48 65.3C30.48 65.3 30.43 65.19 30.35 65.01C30.26 64.82 30.15 64.56 30.08 64.21C30 63.91 29.95 63.55 29.89 63.17C29.88 63.24 29.86 63.3 29.84 63.36C29.73 63.62 29.63 63.91 29.5 64.14C29.25 64.63 28.99 65.07 28.81 65.49C28.63 65.91 28.53 66.34 28.51 66.7C28.48 67.07 28.59 67.37 28.66 67.58C28.77 67.77 28.84 67.88 28.84 67.88C28.84 67.88 28.75 67.78 28.59 67.62C28.46 67.43 28.27 67.13 28.2 66.72C28.12 66.34 28.12 65.87 28.2 65.37L27.93 65.75C27.93 65.84 27.93 65.94 27.93 66.03C27.97 66.67 28.09 67.33 28.33 67.76C28.42 68 28.56 68.14 28.65 68.27C28.74 68.4 28.79 68.46 28.79 68.46C28.79 68.46 28.72 68.41 28.59 68.33C28.47 68.24 28.25 68.14 28.08 67.94C27.87 67.77 27.68 67.54 27.5 67.27C27.53 67.57 27.62 67.86 27.72 68.11C27.85 68.45 27.98 68.72 28.07 68.92C28.14 69.06 28.19 69.16 28.21 69.2C28.18 69.17 28.1 69.09 28 68.97C27.86 68.8 27.66 68.57 27.44 68.26C27.27 68.03 27.1 67.75 26.96 67.41C26.99 68.01 27.11 68.59 27.24 69.03C27.3 69.27 27.4 69.45 27.44 69.59C27.49 69.73 27.53 69.8 27.53 69.8C27.53 69.8 27.47 69.74 27.37 69.63C27.28 69.52 27.11 69.38 26.96 69.17C26.77 68.94 26.58 68.65 26.38 68.32C26.38 68.35 26.38 68.39 26.38 68.43C26.41 68.79 26.42 69.22 26.53 69.49C26.61 69.75 26.67 69.93 26.68 69.98C26.66 69.97 26.61 69.93 26.55 69.88C26.63 70.06 26.71 70.22 26.78 70.34C26.91 70.52 26.99 70.62 26.99 70.62C26.99 70.62 26.89 70.54 26.71 70.4C26.55 70.23 26.31 70 26.13 69.63C26.1 69.59 26.09 69.54 26.07 69.5C25.96 69.39 25.85 69.28 25.75 69.15C25.68 69.35 25.61 69.55 25.54 69.76C25.54 69.76 25.54 69.78 25.54 69.79C25.64 70.3 25.86 70.78 26.11 71.11C26.3 71.33 26.46 71.54 26.61 71.65C26.74 71.77 26.82 71.84 26.82 71.84C26.82 71.84 26.73 71.8 26.56 71.73C26.38 71.66 26.16 71.52 25.89 71.34C25.7 71.2 25.49 71 25.3 70.78C25.25 71.09 25.25 71.38 25.29 71.63C25.34 71.87 25.4 72.09 25.48 72.23C25.56 72.37 25.6 72.45 25.6 72.45C25.6 72.43 25.37 72.28 25.12 71.93C25.15 72.04 25.16 72.1 25.16 72.1C25.16 72.1 25.12 72.04 25.05 71.94C24.98 71.84 24.85 71.7 24.75 71.52C24.65 71.35 24.55 71.16 24.45 70.94C24.36 71.17 24.28 71.42 24.22 71.66C24.08 72.24 24.08 72.86 24.18 73.32C24.21 73.56 24.31 73.72 24.35 73.86C24.4 73.99 24.43 74.07 24.43 74.07C24.43 74.07 24.37 74.01 24.28 73.9C24.19 73.79 24.02 73.66 23.89 73.43C23.82 73.32 23.74 73.19 23.67 73.05C23.53 72.78 23.41 72.45 23.31 72.1L23.28 72.14C23.28 72.14 22.17 75.66 19.94 75.66L17.39 75.77C15.74 75.77 15.74 74.48 16.22 73.69C16.87 72.63 19.15 72.51 19.6 71.62L24.08 60.3L23.82 59.68C23.8 60.02 23.73 60.33 23.63 60.59C23.58 60.73 23.52 60.84 23.46 60.94C23.41 61.05 23.35 61.13 23.29 61.18C23.18 61.31 23.12 61.37 23.12 61.37C23.12 61.37 23.15 61.28 23.21 61.14C23.24 61.07 23.26 60.97 23.28 60.87C23.3 60.76 23.32 60.65 23.31 60.52C23.31 60.43 23.31 60.33 23.31 60.24C23.27 59.86 23.13 59.44 22.91 59.06C22.72 58.95 22.54 58.85 22.36 58.73C22.36 58.78 22.36 58.83 22.35 58.87C22.34 59.07 22.26 59.24 22.22 59.35C22.17 59.46 22.15 59.52 22.15 59.52C22.15 59.52 22.15 59.45 22.13 59.34C22.12 59.23 22.11 59.08 22.03 58.9C21.95 58.68 21.81 58.44 21.63 58.23C21.35 58.02 21.07 57.79 20.8 57.56C20.89 57.77 20.97 57.98 21.03 58.17C21.15 58.57 21.17 58.92 21.17 59.16C21.15 59.39 21.14 59.52 21.14 59.52C21.14 59.52 21.12 59.39 21.09 59.16C21.04 58.94 20.94 58.62 20.75 58.29C20.49 57.83 20.06 57.35 19.6 56.8C19.55 56.77 19.51 56.75 19.51 56.75L19.53 56.72C19.4 56.55 19.27 56.38 19.13 56.2C19.14 56.28 19.16 56.36 19.18 56.43C19.27 56.87 19.38 57.22 19.45 57.47C19.52 57.73 19.56 57.87 19.56 57.87C19.56 57.87 19.49 57.74 19.37 57.5C19.26 57.27 19.06 56.94 18.88 56.52C18.5 55.69 18.07 54.54 17.76 53.32C17.69 53.05 17.63 52.77 17.57 52.49V53.01C17.55 53.45 17.62 53.87 17.64 54.23C17.71 54.86 17.77 55.3 17.78 55.41C17.74 55.31 17.58 54.89 17.34 54.31C17.23 53.97 17.04 53.57 16.94 53.11C16.88 52.89 16.81 52.65 16.75 52.4C16.71 52.16 16.68 51.9 16.65 51.63C16.63 51.49 16.63 51.35 16.62 51.21C16.57 51.51 16.53 51.81 16.51 52.07C16.47 52.45 16.46 52.77 16.45 53C16.44 53.22 16.43 53.35 16.43 53.35C16.43 53.35 16.4 53.22 16.36 53.01C16.32 52.79 16.24 52.47 16.19 52.09C16.05 51.33 15.97 50.27 16.08 49.17C16.15 48.7 16.23 48.25 16.31 47.83C15.96 46.43 15.58 45.32 14.76 44.61C14.12 43.75 12.78 45.09 11.11 45.61C10.63 45.76 10.12 45.83 9.58999 45.77C8.57999 45.93 7.56999 45.51 6.95999 44.71C6.91999 44.66 6.87999 44.6 6.83999 44.54C6.78999 44.45 6.72999 44.37 6.68999 44.28L5.03999 41.11C4.83999 40.71 4.96999 40.24 5.33999 40L8.41999 38L8.73999 37.79C9.30999 37.42 9.60999 37.16 9.74999 36.49L9.88999 35.89C10.27 33.41 17.79 31.13 20.11 33.74C21.12 34.87 21.96 35.8 22.67 36.59C23.05 36.97 23.54 37.42 24.05 37.85C24.6 38.32 25.17 38.7 25.67 38.89C25.91 38.98 26.13 39.04 26.29 39.06C26.45 39.08 26.54 39.09 26.54 39.09C26.54 39.09 26.45 39.11 26.3 39.14C26.25 39.14 26.2 39.15 26.15 39.16C26.43 39.33 26.67 39.52 26.87 39.65C27.13 39.85 27.31 39.97 27.31 39.97C27.31 39.97 27.09 39.97 26.75 39.94C26.94 40.01 27.11 40.08 27.27 40.14C27.87 40.37 28.29 40.54 28.39 40.58C28.34 40.58 28.23 40.57 28.06 40.55C28.06 40.55 28.06 40.55 28.07 40.55C28.68 40.83 29.31 41.04 29.78 41.22C30.25 41.39 30.56 41.5 30.56 41.5C30.56 41.5 30.34 41.5 29.98 41.51C38.19 42.59 45.22 42.55 54.09 42.14C62.2 42.4 66.67 39.12 70.48 35.07C70.9 34.55 71.68 33.56 72.45 32.58C73 31.9 73.49 31.22 73.83 30.68C74.11 30.2 74.29 29.84 74.33 29.76C74.32 29.85 74.25 30.24 74.12 30.8C74.03 31.14 73.9 31.53 73.76 31.95C73.91 31.78 74.03 31.63 74.12 31.47C74.34 31.16 74.48 30.95 74.48 30.95C74.48 30.95 74.45 31.2 74.41 31.58C74.41 31.71 74.38 31.84 74.36 31.98C74.62 31.87 74.83 31.79 74.92 31.76L74.97 31.74C74.97 31.74 74.93 31.85 74.88 32.01C74.81 32.23 74.7 32.54 74.62 32.83C74.62 32.89 74.6 32.95 74.59 33.01C74.64 32.97 74.68 32.93 74.72 32.89C74.87 32.75 75 32.61 75.1 32.48C75.23 32.34 75.3 32.2 75.36 32.11C75.42 32.01 75.45 31.96 75.45 31.96C75.45 31.96 75.45 32.03 75.44 32.14C75.43 32.25 75.43 32.42 75.39 32.61C75.32 33.01 75.15 33.54 74.86 34.04C74.81 34.13 74.75 34.21 74.69 34.3C75.5 34.11 76.18 33.96 76.18 33.96C76.18 33.96 76.1 34.03 75.98 34.13C76.67 33.98 77.18 33.87 77.18 33.87C77.18 33.87 76.71 34.21 76.1 34.65C76.01 34.75 75.91 34.87 75.8 35C75.96 34.97 76.12 34.96 76.26 34.96C76.51 34.95 76.72 34.96 76.86 34.99C77 35.02 77.08 35.03 77.08 35.03C77.08 35.03 76.76 35.06 76.33 35.26C76.16 35.33 75.99 35.43 75.8 35.55C76.09 35.57 76.3 35.59 76.3 35.59C76.3 35.59 76.04 35.87 75.74 36.2C75.98 36.13 76.21 36.05 76.39 35.94C76.57 35.86 76.67 35.74 76.77 35.67C76.84 35.62 76.89 35.58 76.91 35.56C76.91 35.58 76.88 35.64 76.84 35.73C76.78 35.83 76.73 36.01 76.6 36.18C76.4 36.5 76.02 36.87 75.54 37.15C76.17 37.41 76.74 37.65 76.74 37.65C76.74 37.65 76.52 37.72 76.21 37.82C76.26 37.83 76.3 37.85 76.35 37.86C76.43 37.82 76.48 37.8 76.5 37.79C76.5 37.8 76.47 37.84 76.43 37.88C76.68 37.96 76.85 38.01 76.85 38.01C76.85 38.01 76.59 38.07 76.2 38.16C76.16 38.21 76.11 38.26 76.05 38.31C76 38.35 75.95 38.39 75.9 38.42C76.2 38.51 76.4 38.56 76.4 38.56C76.4 38.56 76.16 38.61 75.79 38.71C76.01 38.88 76.19 39.01 76.19 39.01C76.19 39.01 76 39.1 75.75 39.2C76.08 39.2 76.4 39.17 76.66 39.12C76.9 39.09 77.08 39.03 77.22 39C77.33 38.97 77.39 38.96 77.42 38.95L77.47 38.91Z" fill="#C47F40"/>
<path d="M76.18 39.28C76.16 39.43 76.14 39.59 76.12 39.74C76.09 39.93 76.07 40.12 76.04 40.31C76.04 40.34 76.03 40.38 76.02 40.41C75.97 40.77 75.91 41.12 75.84 41.47C75.83 41.58 75.81 41.68 75.78 41.79C75.75 41.79 75.73 41.78 75.7 41.77C75.4 41.66 74.95 41.6 74.54 41.52C74.14 41.47 73.75 41.46 73.44 41.47C74.33 42.03 75.12 42.53 75.12 42.53C75.12 42.53 74.16 42.4 73.1 42.26C73.41 42.39 73.71 42.47 73.98 42.5C74.23 42.55 74.44 42.55 74.58 42.53C74.73 42.53 74.82 42.52 74.82 42.52C74.82 42.52 74.74 42.55 74.6 42.61C74.47 42.68 74.26 42.76 74 42.82C73.58 42.92 73 42.95 72.41 42.88C73.01 43.29 73.5 43.63 73.5 43.63C73.5 43.63 72.76 43.57 71.92 43.51C72.22 43.69 72.52 43.83 72.79 43.91C72.92 43.95 73.03 43.97 73.14 43.98C73.25 44 73.35 44.01 73.42 43.99C73.59 43.99 73.68 43.98 73.68 43.98C73.68 43.98 73.59 44.01 73.44 44.08C73.36 44.12 73.27 44.15 73.15 44.17C73.04 44.2 72.91 44.22 72.75 44.23C72.39 44.26 71.96 44.2 71.51 44.1C71.81 44.37 72.12 44.62 72.36 44.84C72.66 45.1 72.88 45.28 72.92 45.33C72.86 45.31 72.59 45.23 72.21 45.11C71.78 44.97 71.16 44.8 70.56 44.58C70.37 44.49 70.17 44.41 69.98 44.33C70.41 44.71 70.87 45.02 71.2 45.3C71.53 45.55 71.76 45.74 71.81 45.78C71.74 45.77 71.46 45.69 71.06 45.59C70.61 45.46 69.96 45.34 69.35 45.1C69.04 44.99 68.73 44.89 68.44 44.78C68.35 44.75 68.27 44.72 68.19 44.69C68.19 44.69 68.18 44.69 68.17 44.69C68.42 44.86 68.68 45.02 68.94 45.17C69.74 45.6 70.64 45.84 71.33 45.87C71.67 45.89 71.97 45.87 72.17 45.84C72.33 45.81 72.43 45.8 72.47 45.8C72.43 45.82 72.34 45.86 72.19 45.93C72 46.02 71.71 46.12 71.35 46.19C70.63 46.36 69.6 46.36 68.59 46.13C67.88 45.95 67.17 45.7 66.58 45.45C66.51 45.48 66.43 45.51 66.36 45.54C66.6 45.67 66.86 45.77 67.13 45.87C68.2 46.27 69.4 46.39 70.29 46.45C71.19 46.5 71.78 46.52 71.78 46.52C71.78 46.52 71.2 46.63 70.3 46.76C69.41 46.89 68.18 47.04 66.89 46.85C66.57 46.8 66.25 46.76 65.93 46.65C65.61 46.58 65.32 46.46 65.05 46.35C65.05 46.35 65.05 46.35 65.04 46.35C64.88 46.28 64.73 46.22 64.58 46.16C64.55 46.16 64.53 46.17 64.5 46.18C64.62 46.27 64.74 46.35 64.86 46.42C65.49 46.84 66.12 47.19 66.65 47.43C66.99 47.6 67.29 47.69 67.5 47.78C67.65 47.85 67.76 47.89 67.8 47.91C67.75 47.91 67.64 47.89 67.48 47.87C67.26 47.83 66.94 47.82 66.56 47.73C65.87 47.61 64.97 47.35 64.07 47.02C64.33 47.26 64.6 47.47 64.86 47.62C65.01 47.73 65.16 47.79 65.29 47.84C65.42 47.91 65.54 47.95 65.65 47.97C65.85 48.02 65.97 48.05 65.97 48.05C65.97 48.05 65.85 48.05 65.63 48.05C65.52 48.05 65.39 48.05 65.24 48.02C65.09 48 64.91 47.97 64.73 47.91C64.13 47.75 63.44 47.37 62.77 46.91C63.05 47.26 63.34 47.6 63.6 47.93C63.9 48.27 64.21 48.55 64.47 48.81C64.92 49.25 65.24 49.56 65.32 49.65C65.23 49.6 64.84 49.38 64.28 49.06C63.96 48.87 63.57 48.67 63.18 48.41C62.88 48.19 62.57 47.96 62.25 47.73C62.9 49.19 63.31 50.98 63.31 53.17C63.31 53.63 63.31 54.1 63.26 54.59C63.26 54.73 63.25 54.87 63.23 55.01C63.2 55.11 63.18 55.21 63.16 55.31C63.15 55.38 63.15 55.44 63.13 55.5C63.16 55.64 63.18 55.78 63.2 55.92C63.31 56.38 63.48 56.83 63.7 57.19L63.77 57.14C63.77 57.14 63.86 57.36 63.99 57.63C64.12 57.81 64.27 57.91 64.35 58.02C64.44 58.11 64.49 58.16 64.51 58.19C64.48 58.18 64.41 58.15 64.3 58.1C64.27 58.09 64.24 58.07 64.21 58.06C64.25 58.12 64.29 58.18 64.33 58.25C64.53 58.4 64.72 58.53 64.9 58.65C65.48 59.03 65.87 59.28 65.87 59.28C65.87 59.28 65.5 59.16 64.92 58.98C64.96 59.02 64.99 59.06 65.03 59.1C65.45 59.51 65.94 59.86 66.35 60.08C66.44 60.13 66.52 60.17 66.59 60.21C66.69 60.25 66.78 60.28 66.85 60.32C66.98 60.37 67.05 60.41 67.05 60.41C67.05 60.41 66.97 60.41 66.83 60.41H66.68C66.56 60.41 66.42 60.41 66.25 60.39C66.06 60.37 65.83 60.34 65.6 60.29C65.7 60.4 65.81 60.5 65.92 60.61C66.25 60.86 66.6 61.15 66.89 61.29C67 61.35 67.09 61.41 67.17 61.45C67.3 61.53 67.38 61.57 67.38 61.57C67.38 61.57 67.33 61.57 67.23 61.57C67.13 61.57 66.99 61.58 66.82 61.59C66.68 61.61 66.52 61.6 66.36 61.59C66.39 61.6 66.41 61.62 66.43 61.64C66.58 61.71 66.75 61.8 66.92 61.91C67.09 62.01 67.26 62.14 67.42 62.28C67.49 62.32 67.56 62.36 67.62 62.39C67.66 62.41 67.69 62.43 67.73 62.44L67.79 62.62C68.08 62.92 68.34 63.27 68.54 63.65C68.73 64.03 68.84 64.4 68.94 64.73C69.05 65.01 69.13 65.32 69.3 65.5C69.45 65.69 69.64 65.8 69.79 65.84C69.91 65.87 69.99 65.87 70.02 65.87C69.99 65.88 69.91 65.92 69.78 65.93C69.65 65.94 69.45 65.91 69.24 65.82C69.19 65.8 69.14 65.77 69.09 65.75C68.97 65.68 68.87 65.59 68.77 65.49C68.84 65.59 68.9 65.69 68.96 65.79C69.22 66.15 69.48 66.52 69.7 66.82V66.84C70 67.25 70.23 67.56 70.28 67.63C70.2 67.59 69.79 67.37 69.26 67.07C69.26 67.07 69.26 67.08 69.27 67.09C69.54 67.47 70 67.88 70.51 68.25C71.03 68.6 71.62 68.86 72.09 69.01C72.15 69.04 72.22 69.05 72.27 69.07C72.3 69.15 72.34 69.22 72.36 69.29C72.27 69.3 72.17 69.32 72.06 69.32C71.68 69.35 71.21 69.34 70.7 69.27C70.94 69.51 71.12 69.68 71.12 69.68C71.12 69.68 70.62 69.64 70.04 69.6L70.28 70.35H70.47C71.4 70.26 72.24 70.89 72.43 71.8L72.71 73.1C72.9 73.94 72.33 74.76 71.48 74.89H71.45C70.45 75.05 69.46 74.61 68.9 73.77L66.79 70.61H66.81L65.9 69.23L64.02 66.4C62.71 66.24 61.54 66.04 60.47 65.79C60.65 66.01 60.75 66.23 60.85 66.37C60.93 66.5 60.98 66.57 61 66.61C60.97 66.58 60.9 66.52 60.79 66.42C60.64 66.3 60.47 66.09 60.19 65.92C60.03 65.81 59.85 65.7 59.65 65.58C59.43 65.52 59.21 65.45 58.99 65.39C59.16 65.62 59.32 65.83 59.47 66C59.78 66.36 59.98 66.6 59.98 66.6C59.98 66.6 59.7 66.46 59.28 66.25C58.84 66.05 58.31 65.69 57.74 65.34C57.54 65.2 57.34 65.06 57.15 64.91C57.27 65.1 57.37 65.27 57.43 65.4C57.55 65.61 57.62 65.73 57.62 65.73C57.62 65.73 57.53 65.63 57.37 65.45C57.21 65.26 56.99 65.01 56.68 64.76C56.46 64.56 56.2 64.35 55.91 64.14C55.35 63.84 54.83 63.52 54.36 63.17C54.24 63.08 54.14 62.98 54.02 62.89C53.62 62.64 53.22 62.39 52.84 62.13C52.39 61.8 51.98 61.54 51.58 61.16C51.4 60.99 51.24 60.79 51.1 60.57C51.05 60.77 51.02 60.89 51.02 60.89C51.02 60.89 50.95 60.72 50.83 60.45C50.74 60.27 50.62 60.06 50.49 59.86C50.6 60.31 50.64 60.76 50.56 61.08C50.56 61.31 50.47 61.5 50.44 61.62C50.41 61.75 50.39 61.82 50.39 61.82C50.39 61.82 50.38 61.75 50.36 61.62C50.33 61.49 50.33 61.32 50.25 61.11C50.22 61.01 50.18 60.9 50.14 60.79C50.08 60.68 50.02 60.58 49.95 60.47C49.9 60.35 49.81 60.25 49.73 60.15C49.64 60.05 49.58 59.96 49.46 59.84L49.34 59.71C49.34 59.97 49.34 60.13 49.34 60.13C49.34 60.13 49.22 60 49.04 59.81C48.95 59.72 48.86 59.6 48.78 59.47C48.56 60.01 48.48 60.63 48.48 60.63C48.48 60.63 48.39 60.5 48.24 60.31C48.14 60.18 48.05 60.01 47.96 59.83C47.76 60.3 47.58 60.72 47.54 60.78C47.59 60.79 47.62 60.81 47.64 60.81C47.62 60.81 47.58 60.81 47.53 60.8C47.49 60.73 47.35 60.3 47.19 59.77C47.02 60.25 46.85 60.71 46.83 61.05C46.79 61.38 46.92 61.61 46.94 61.65C46.92 61.64 46.87 61.6 46.8 61.54C46.71 61.45 46.6 61.31 46.52 61.1C46.37 60.74 46.32 60.3 46.26 59.84C46.14 60.16 46.01 60.5 45.97 60.77C45.9 61.05 45.86 61.24 45.86 61.24C45.86 61.24 45.78 61.06 45.65 60.8C45.59 60.69 45.54 60.55 45.48 60.4C45.46 60.45 45.43 60.51 45.41 60.57C45.34 60.8 45.3 61.01 45.28 61.2C45.25 61.57 45.39 61.82 45.38 61.83C45.38 61.82 45.14 61.66 44.97 61.25C44.9 61.06 44.84 60.85 44.8 60.62C44.64 60.96 44.52 61.22 44.52 61.22C44.52 61.22 44.41 60.96 44.27 60.62C44.22 60.75 44.18 60.86 44.18 60.97C44.13 61.32 44.09 61.55 44.09 61.55C44.09 61.55 44 61.33 43.86 60.99C43.86 60.98 43.86 60.96 43.85 60.94C43.82 61.25 43.81 61.55 43.85 61.8C43.85 61.98 43.91 62.11 43.92 62.22C43.95 62.33 43.96 62.39 43.96 62.39C43.96 62.39 43.92 62.34 43.85 62.26C43.78 62.18 43.66 62.07 43.56 61.92C43.39 61.7 43.21 61.38 43.06 61.03C43.04 61.08 43.02 61.14 43.01 61.19C42.94 61.49 42.97 61.71 42.96 61.71C42.96 61.71 42.81 61.54 42.7 61.22C42.57 60.9 42.5 60.45 42.46 59.98V59.93C42.43 60.01 42.4 60.09 42.38 60.17C42.16 60.85 42 61.53 42.1 62.03C42.14 62.28 42.23 62.48 42.32 62.61C42.39 62.7 42.43 62.76 42.45 62.79C42.37 62.75 42.05 62.59 41.8 62.14C41.66 61.9 41.57 61.6 41.5 61.29C41.28 61.89 41.1 62.37 41.1 62.37C41.1 62.37 40.96 61.77 40.8 61.07C40.68 61.39 40.6 61.7 40.58 61.98C40.54 62.21 40.58 62.4 40.58 62.54C40.58 62.68 40.59 62.76 40.59 62.76C40.59 62.76 40.55 62.69 40.49 62.57C40.44 62.44 40.31 62.27 40.26 62.03C40.16 61.71 40.1 61.31 40.09 60.87C40.04 61.15 40.01 61.41 40.02 61.63C40.02 62.02 40.01 62.28 40.01 62.28C40.01 62.28 39.89 62.04 39.72 61.68C39.53 61.35 39.4 60.88 39.24 60.38C39.24 60.4 39.23 60.42 39.21 60.44C39.01 61.04 38.75 61.64 38.69 62.12C38.59 62.61 38.52 62.93 38.52 62.93C38.52 62.93 38.46 62.61 38.37 62.12C38.3 61.83 38.27 61.47 38.25 61.08C38.14 61.42 38.03 61.75 37.97 62.02C37.87 62.43 37.8 62.71 37.8 62.71C37.8 62.71 37.74 62.43 37.65 62.02C37.58 61.76 37.54 61.44 37.5 61.09C37.41 61.24 37.33 61.38 37.24 61.53C37.18 61.68 37.12 61.83 37.06 61.97C37.03 62.04 37 62.12 36.97 62.19C36.95 62.26 36.94 62.33 36.92 62.39C36.89 62.54 36.89 62.67 36.89 62.79C36.88 62.92 36.92 63.03 36.93 63.13C36.94 63.24 36.98 63.32 37.02 63.39C37.09 63.54 37.13 63.61 37.13 63.61C37.13 63.59 36.81 63.39 36.59 62.86C36.54 62.72 36.48 62.57 36.46 62.4C36.45 62.31 36.43 62.23 36.42 62.14C36.42 62.05 36.42 61.96 36.42 61.88C36.42 61.69 36.43 61.5 36.45 61.3C36.48 61.11 36.52 60.93 36.55 60.74C36.58 60.64 36.6 60.53 36.62 60.43L36.08 60.48C35.84 60.92 35.69 61.39 35.69 61.78C35.69 61.98 35.72 62.17 35.78 62.29C35.81 62.39 35.83 62.46 35.84 62.48C35.82 62.46 35.77 62.41 35.7 62.33C35.6 62.24 35.5 62.07 35.39 61.85C35.24 61.55 35.17 61.12 35.17 60.66C35.05 60.98 34.94 61.33 34.85 61.7C34.76 62.35 34.61 63.03 34.64 63.54V64.4C34.64 64.4 34.51 64.08 34.34 63.59C34.12 63.1 34.01 62.4 33.85 61.67C33.81 61.35 33.8 61.03 33.78 60.71H33.7C33.54 61.03 33.38 61.36 33.24 61.72C33.05 62.35 32.81 63.01 32.76 63.52C32.67 64.04 32.62 64.38 32.62 64.38C32.62 64.38 32.55 64.04 32.45 63.53C32.32 63.07 32.3 62.47 32.26 61.84C32.23 61.92 32.19 62.01 32.16 62.09C31.94 62.76 31.89 63.53 31.98 64.09C31.99 64.38 32.09 64.6 32.13 64.77C32.16 64.9 32.18 64.98 32.19 65.01C32.16 64.98 32.12 64.9 32.05 64.81C31.97 64.66 31.79 64.47 31.68 64.18C31.58 63.99 31.49 63.75 31.42 63.49C31.37 64.02 31.38 64.52 31.43 64.93C31.45 65.23 31.54 65.47 31.57 65.65C31.6 65.78 31.62 65.87 31.63 65.91C31.6 65.88 31.56 65.8 31.49 65.69C31.41 65.53 31.25 65.32 31.13 65.02C30.87 64.47 30.65 63.68 30.52 62.86C30.44 63.34 30.37 63.79 30.37 64.17C30.34 64.51 30.38 64.78 30.42 64.98C30.45 65.18 30.46 65.29 30.46 65.29C30.46 65.29 30.41 65.18 30.33 65C30.24 64.81 30.13 64.55 30.06 64.2C29.98 63.9 29.93 63.54 29.87 63.16C29.86 63.23 29.84 63.29 29.82 63.35C29.71 63.61 29.61 63.9 29.48 64.13C29.23 64.62 28.97 65.06 28.79 65.48C28.61 65.9 28.51 66.33 28.49 66.69C28.46 67.06 28.57 67.36 28.64 67.57C28.75 67.76 28.82 67.87 28.82 67.87C28.82 67.87 28.73 67.77 28.57 67.61C28.44 67.42 28.25 67.12 28.18 66.71C28.1 66.33 28.1 65.86 28.18 65.36L27.91 65.74C27.91 65.83 27.91 65.93 27.91 66.02C27.95 66.66 28.07 67.32 28.31 67.75C28.4 67.99 28.54 68.13 28.63 68.26C28.72 68.39 28.77 68.45 28.77 68.45C28.77 68.45 28.7 68.4 28.57 68.32C28.45 68.23 28.23 68.13 28.06 67.93C27.85 67.76 27.66 67.53 27.48 67.26C27.51 67.56 27.6 67.85 27.7 68.1C27.83 68.44 27.96 68.71 28.05 68.91C28.12 69.05 28.17 69.15 28.19 69.19C28.16 69.16 28.08 69.08 27.98 68.96C27.84 68.79 27.64 68.56 27.42 68.25C27.25 68.02 27.08 67.74 26.94 67.4C26.97 68 27.09 68.58 27.22 69.02C27.28 69.26 27.38 69.44 27.42 69.58C27.47 69.72 27.51 69.79 27.51 69.79C27.51 69.79 27.45 69.73 27.35 69.62C27.26 69.51 27.09 69.37 26.94 69.16C26.75 68.93 26.56 68.64 26.36 68.31C26.36 68.34 26.36 68.38 26.36 68.42C26.39 68.78 26.4 69.21 26.51 69.48C26.59 69.74 26.65 69.92 26.66 69.97C26.64 69.96 26.59 69.92 26.53 69.87C26.61 70.05 26.69 70.21 26.76 70.33C26.89 70.51 26.97 70.61 26.97 70.61C26.97 70.61 26.87 70.53 26.69 70.39C26.53 70.22 26.29 69.99 26.11 69.62C26.08 69.58 26.07 69.53 26.05 69.49C25.94 69.38 25.83 69.27 25.73 69.14C25.66 69.34 25.59 69.54 25.52 69.75C25.52 69.75 25.52 69.77 25.52 69.78C25.62 70.29 25.84 70.77 26.09 71.1C26.28 71.32 26.44 71.53 26.59 71.64C26.72 71.76 26.8 71.83 26.8 71.83C26.8 71.83 26.71 71.79 26.54 71.72C26.36 71.65 26.14 71.51 25.87 71.33C25.68 71.19 25.47 70.99 25.28 70.77C25.23 71.08 25.23 71.37 25.27 71.62C25.32 71.86 25.38 72.08 25.46 72.22C25.54 72.36 25.58 72.44 25.58 72.44C25.58 72.42 25.35 72.27 25.1 71.92C25.13 72.03 25.14 72.09 25.14 72.09C25.14 72.09 25.1 72.03 25.03 71.93C24.96 71.83 24.83 71.69 24.73 71.51C24.63 71.34 24.53 71.15 24.43 70.93C24.34 71.16 24.26 71.41 24.2 71.65C24.06 72.23 24.06 72.85 24.16 73.31C24.19 73.55 24.29 73.71 24.33 73.85C24.38 73.98 24.41 74.06 24.41 74.06C24.41 74.06 24.35 74 24.26 73.89C24.17 73.78 24 73.65 23.87 73.42C23.8 73.31 23.72 73.18 23.65 73.04C23.84 72.56 23.97 72.05 24.05 71.56C24.21 70.61 24.27 69.62 24.53 68.7C24.62 68.38 24.73 68.07 24.88 67.77C24.87 67.84 24.9 67.91 24.95 67.96C25.06 68.05 25.25 68.07 25.37 67.97C25.54 67.82 25.57 67.57 25.59 67.34C25.59 67.25 25.6 67.15 25.61 67.06C25.65 66.45 25.69 65.84 25.73 65.23C25.92 65.33 26.11 65.43 26.3 65.53C26.97 64.18 27.31 62.67 27.27 61.16C27.55 61.24 27.84 61.31 28.12 61.38C27.82 59.16 27.34 56.96 26.7 54.8C27.08 55.4 27.58 55.92 28.16 56.33C28.33 55.19 28.5 54.04 28.68 52.9C29.72 54.47 31.19 55.74 32.88 56.55C33.22 56.14 33.46 55.66 33.57 55.15C33.89 55.94 34.92 56.16 35.68 55.86C36.06 55.72 36.37 55.44 36.5 55.04C36.69 55.77 37.51 56.16 38.27 56.22C39.03 56.28 39.78 56.11 40.54 56.22C40.64 56.23 40.74 56.25 40.84 56.27C40.97 56.29 41.11 56.31 41.24 56.3C41.43 56.3 41.6 56.26 41.75 56.14C41.8 56.1 41.85 56.05 41.88 55.99C41.91 55.96 41.93 55.94 41.94 55.9C42.15 55.55 42.24 55.07 42.63 55.01C42.83 54.98 43.01 55.08 43.19 55.2C43.53 55.43 43.85 55.7 44.18 55.93C44.44 56.12 44.71 56.29 45 56.43C45.2 56.52 45.42 56.58 45.63 56.62C45.89 56.67 46.15 56.67 46.4 56.62C46.54 56.59 46.66 56.54 46.79 56.48C46.89 56.43 46.98 56.36 47.07 56.28C47.16 56.35 47.26 56.41 47.35 56.47C48.65 57.36 50.05 58.06 51.54 58.56C51.67 58.61 51.8 58.65 51.92 58.69C52.11 58.75 52.37 58.74 52.55 58.67C52.7 58.6 52.79 58.5 52.74 58.34C53.41 59.23 54.47 59.79 55.58 59.87C55.73 59.61 55.87 59.35 56.02 59.09C56.38 59.24 56.75 59.38 57.12 59.53C57.19 58.9 57.27 58.28 57.34 57.66C57.36 57.47 57.39 57.28 57.5 57.13C57.62 56.98 57.8 56.9 57.97 56.81C58.85 56.31 59.19 55.06 58.68 54.18C58.92 54.31 59.18 54.44 59.42 54.56C59.87 53.7 60.17 52.75 60.29 51.79C60.29 51.79 60.3 51.74 60.3 51.71C60.35 51.75 60.39 51.79 60.43 51.82C60.66 52.02 60.89 52.22 61.12 52.42C61.21 52.25 61.29 52.08 61.36 51.9C61.39 51.84 61.41 51.79 61.43 51.73C61.61 51.28 61.75 50.82 61.85 50.35C61.92 50.02 61.98 49.68 62.01 49.34C62.02 49.21 62.04 49.1 62.04 48.98C62.05 48.7 62.06 48.44 62.04 48.19V48.14C62.02 47.62 61.96 47.11 61.85 46.61C62.09 46.56 62.33 46.51 62.57 46.44C62.57 46.44 62.5733 46.44 62.58 46.44C62.78 46.39 62.99 46.34 63.19 46.28C63.29 46.25 63.39 46.22 63.49 46.18C64.2 45.96 64.9 45.67 65.57 45.34C65.5 44.76 66.06 44.26 66.63 44.18C67.21 44.09 67.78 44.31 68.32 44.52C68.17 44.04 68.58 43.56 69.05 43.38C69.51 43.19 70.02 43.18 70.49 43C71.61 42.57 72.21 41.28 73.14 40.61C73.38 40.43 73.64 40.3 73.93 40.23C74.74 40.03 75.91 40.18 76.09 39.37L76.18 39.28Z" fill="#D49053"/>
<path d="M74.42 31.92C74.45 31.77 74.47 31.64 74.47 31.52C74.52 31.14 74.54 30.89 74.54 30.89C74.54 30.89 74.39 31.09 74.18 31.41C74.09 31.56 73.96 31.72 73.82 31.89C73.97 31.47 74.09 31.08 74.18 30.74C74.31 30.18 74.38 29.79 74.39 29.7C74.34 29.78 74.17 30.14 73.89 30.62C73.55 31.16 73.06 31.84 72.51 32.52C71.74 33.51 70.96 34.49 70.54 35.01C66.72 39.06 62.25 42.34 54.15 42.08C50.24 42.27 46.68 42.38 43.23 42.34C39.04 42.31 35 42.08 30.65 41.52C30.45 41.5 30.25 41.47 30.05 41.45C30.26 41.45 30.43 41.45 30.53 41.45C30.6 41.45 30.63 41.45 30.63 41.45C30.63 41.45 30.54 41.42 30.39 41.36C30.26 41.31 30.07 41.25 29.86 41.17C29.39 40.99 28.76 40.78 28.15 40.5H28.14C28.31 40.52 28.42 40.53 28.47 40.53C28.36 40.48 27.94 40.32 27.35 40.09C27.19 40.02 27.02 39.96 26.83 39.89C27.16 39.91 27.39 39.92 27.39 39.92C27.39 39.92 27.21 39.79 26.95 39.6C26.75 39.47 26.51 39.28 26.23 39.11C26.28 39.11 26.34 39.1 26.38 39.09C26.53 39.06 26.62 39.04 26.62 39.04C26.62 39.04 26.53 39.03 26.37 39.01C26.22 38.99 26 38.94 25.75 38.84C25.25 38.65 24.68 38.27 24.13 37.8C23.61 37.37 23.13 36.91 22.75 36.54C22.04 35.75 21.2 34.82 20.19 33.69C17.88 31.08 10.36 33.36 9.97 35.84L9.83 36.44C9.7 37.1 9.39 37.37 8.82 37.74L8.5 37.95L5.42 39.95C5.05 40.19 4.92 40.66 5.12 41.06L6.77 44.23C6.82 44.32 6.87 44.41 6.92 44.49C6.96 44.55 7 44.6 7.04 44.66C7.11 44.63 7.17 44.58 7.23 44.53L7.25 44.51C7.25 44.51 7.27 44.52 7.28 44.53C7.82 44.81 10.52 44.33 10.07 41.75C10.04 41.53 9.97 41.28 9.88 41.02C10.42 41.15 10.78 40.45 10.75 39.9C10.72 39.35 10.51 38.77 10.77 38.28C11.15 37.56 12.21 37.63 12.97 37.94C12.99 37.94 13.01 37.95 13.03 37.97C13.03 37.97 13.03 37.97 13.04 37.97C13.44 38.27 13.92 38.64 14.32 38.76C14.51 38.84 14.68 38.85 14.8 38.86C14.91 38.86 14.97 38.86 14.97 38.86C14.97 38.86 14.92 38.83 14.82 38.77C14.73 38.72 14.6 38.64 14.48 38.49C14.75 38.54 15.03 38.53 15.29 38.44C14.63 38.04 14.06 37.49 13.62 36.85C13.68 36.85 13.75 36.88 13.81 36.88C14.08 36.91 14.26 36.94 14.26 36.94C14.26 36.94 13.74 36.42 13.37 35.84C13.1 35.41 12.91 34.97 12.82 34.75C13.85 34.06 15.37 34.44 16.18 35.39C17.02 36.36 17.24 37.73 17.13 39C17.02 40.28 16.63 41.51 16.38 42.76C16.35 42.93 16.32 43.09 16.32 43.26C16.31 43.51 16.35 43.76 16.49 43.95C16.59 44.08 16.72 44.17 16.85 44.27C16.93 44.33 17.02 44.4 17.08 44.47C17.32 44.73 17.39 45.11 17.46 45.46C17.64 46.47 17.81 47.46 17.99 48.47C18.21 48.05 18.44 47.63 18.66 47.21C18.8 49.82 19.91 52.35 21.74 54.21C21.74 54.09 21.74 53.97 21.74 53.85C21.77 53.9 21.8 53.95 21.83 54C22.07 54.61 22.23 55.02 22.23 55.02C22.23 55.02 22.19 54.57 22.13 53.9C22.04 53.58 21.95 53.19 21.85 52.78C21.85 52.76 21.84 52.74 21.83 52.72C21.83 52.69 21.83 52.67 21.84 52.64C21.98 52.88 22.12 53.11 22.27 53.29C22.53 53.66 22.72 53.92 22.77 53.98C22.76 53.91 22.67 53.6 22.56 53.16C22.4 52.68 22.34 51.99 22.24 51.33C22.24 51.3 22.24 51.27 22.24 51.24C22.24 51.22 22.26 51.21 22.27 51.19C22.32 51.26 22.36 51.34 22.41 51.39C22.65 51.74 22.82 51.99 22.86 52.05C22.85 51.98 22.79 51.69 22.7 51.27C22.64 51.06 22.6 50.8 22.57 50.53C22.65 50.38 22.74 50.23 22.82 50.08C22.84 50.1 22.86 50.13 22.87 50.15C23.32 50.7 23.58 51.47 23.74 52.04C23.89 52.62 23.97 53.02 23.97 53.02C23.97 53.02 24.02 52.62 24.05 52.01C24.05 51.71 24.09 51.34 24.03 50.94C24 50.74 24.01 50.52 23.94 50.32C23.87 50.1 23.81 49.88 23.75 49.67C23.68 49.46 23.6 49.31 23.54 49.13C24.15 49.84 24.72 50.51 24.72 50.51C24.72 50.51 24.58 49.76 24.42 48.92C24.47 48.99 24.53 49.06 24.59 49.12C24.71 49.27 24.84 49.36 24.91 49.44C24.97 49.49 25.01 49.53 25.03 49.55C25.02 49.5 24.94 49.28 24.86 48.97C24.81 48.72 24.77 48.41 24.73 48.07C24.84 48.25 24.94 48.41 25.01 48.57C25.18 48.91 25.3 49.13 25.3 49.13C25.3 49.13 25.3 48.88 25.31 48.5C25.32 48.29 25.31 48.04 25.29 47.79C25.49 48.11 25.67 48.44 25.83 48.7C26.05 49.1 26.21 49.36 26.21 49.36C26.21 49.36 26.18 49.06 26.13 48.61C26.09 48.27 26.05 47.84 25.98 47.37C26.11 47.54 26.24 47.69 26.36 47.83C26.62 48.15 26.81 48.37 26.86 48.42C26.84 48.35 26.75 48.08 26.64 47.68C26.59 47.5 26.52 47.3 26.45 47.07C26.54 47.04 26.62 47 26.71 46.97C26.51 46.65 26.29 46.34 26.05 46.04C26.05 46.03 26.04 46.01 26.03 45.99C25.94 45.83 25.86 45.67 25.78 45.52C25.68 45.37 25.58 45.24 25.49 45.1C25.3 44.82 25.08 44.6 24.91 44.39C24.8 44.26 24.7 44.17 24.61 44.07C24.74 44.03 24.87 43.98 25.01 43.94C24.31 43.6 23.72 43.01 23.4 42.29C23.39 42.27 23.38 42.24 23.37 42.22C23.4 42.22 23.44 42.21 23.47 42.2C24.85 41.96 26.33 42.71 26.94 43.97C27.03 43.73 27.4 43.69 27.61 43.84C27.81 44 27.91 44.26 27.99 44.51C28.16 45.03 28.3 45.56 28.43 46.08H28.4C28.4 46.08 28.43 46.15 28.47 46.24C28.52 46.46 28.58 46.69 28.63 46.91C28.69 47.41 28.74 48.17 28.88 48.86C29.02 49.61 29.24 50.33 29.43 50.86C29.64 51.37 29.78 51.71 29.78 51.71C29.78 51.71 29.76 51.35 29.74 50.8C29.74 50.28 29.77 49.62 29.87 48.95C30.02 49.23 30.17 49.5 30.31 49.71C30.55 50.09 30.7 50.34 30.7 50.34C30.7 50.34 30.66 50.05 30.6 49.61C30.55 49.17 30.49 48.59 30.51 48.02C30.51 47.99 30.51 47.95 30.51 47.91C30.8 48.68 31.04 49.29 31.04 49.29C31.04 49.29 31.14 48.21 31.24 47.09C31.27 46.87 31.31 46.65 31.34 46.44C31.44 46.61 31.55 46.77 31.66 46.92C31.66 46.96 31.68 46.99 31.69 47.03C31.8 47.33 31.77 47.78 31.8 48.17C31.85 49.06 32 49.92 32.22 50.52C32.3 50.82 32.43 51.06 32.49 51.23C32.56 51.4 32.6 51.49 32.6 51.49C32.6 51.49 32.6 51.39 32.57 51.21C32.57 51.03 32.5 50.78 32.52 50.47C32.51 50.07 32.55 49.58 32.63 49.08C32.64 49.14 32.66 49.19 32.67 49.25C32.79 49.77 32.92 50.3 33.06 50.72C33.11 51.02 33.16 51.33 33.19 51.65C33.23 51.89 33.24 52.15 33.26 52.4H33.21C33.21 52.4 33.24 52.46 33.27 52.51C33.27 52.62 33.28 52.73 33.3 52.83C33.34 53.22 33.49 53.57 33.62 53.84C33.75 54.11 33.88 54.32 33.98 54.45C34.05 54.56 34.09 54.62 34.12 54.65C34.12 54.62 34.09 54.54 34.06 54.41C34.01 54.25 33.96 54.01 33.92 53.74C33.91 53.67 33.91 53.59 33.91 53.53C33.96 53.62 34.02 53.7 34.08 53.79C34.55 54.44 35 55.03 35 55.03V54.98C35.17 55.2 35.34 55.41 35.54 55.61C35.62 55.68 35.69 55.76 35.77 55.81C35.83 55.88 35.9 55.93 35.96 55.98C36.42 56.56 36.96 57.08 37.59 57.5C37.59 57.31 37.59 57.14 37.6 56.96C37.64 56.97 37.67 56.99 37.67 56.99L37.6 56.92C37.6 56.7 37.61 56.48 37.62 56.26C38.08 56.98 38.8 57.53 39.62 57.79C39.71 57.53 39.83 57.26 39.97 57.01C40.14 57.15 40.3 57.27 40.39 57.38C40.49 57.49 40.55 57.56 40.55 57.56C40.55 57.56 40.52 57.48 40.46 57.34C40.41 57.19 40.3 57 40.16 56.77L40.13 56.74C40.16 56.68 40.2 56.63 40.24 56.57C40.33 56.62 40.43 56.66 40.52 56.71C40.76 56.86 41 57.01 41.19 57.13C41.57 57.41 41.82 57.61 41.82 57.61C41.82 57.61 41.66 57.33 41.42 56.92C41.28 56.72 41.12 56.49 40.94 56.24C40.94 56.24 40.9367 56.2367 40.93 56.23C40.87 56.16 40.8 56.08 40.74 56.01C40.75 56 40.76 55.98 40.77 55.97C40.81 55.99 40.84 56 40.88 56.02C41.04 56.09 41.18 56.18 41.32 56.27C41.57 56.44 41.79 56.62 41.97 56.79C42.23 57.05 42.4 57.26 42.4 57.26C42.4 57.26 42.35 57.01 42.23 56.63C42.16 56.44 42.07 56.21 41.95 55.98C41.94 55.95 41.92 55.91 41.9 55.87C41.94 55.87 41.97 55.88 42.01 55.89C42.25 55.94 42.5 55.98 42.75 56C42.92 56.03 43.13 56.06 43.25 56.07C43.39 56.09 43.55 56.08 43.65 56.16C43.7 56.19 43.76 56.21 43.82 56.24C43.87 56.29 43.93 56.33 43.99 56.37C44.1 56.46 44.21 56.56 44.3 56.64C44.69 56.98 44.95 57.21 44.95 57.21C44.95 57.21 44.79 56.91 44.55 56.44C44.48 56.33 44.42 56.2 44.34 56.06C44.31 56.02 44.29 55.97 44.25 55.92C44.25 55.92 44.25 55.92 44.25 55.91C44.44 55.99 44.63 56.06 44.83 56.14C44.85 56.17 44.88 56.2 44.9 56.24C44.9 56.21 44.9 56.19 44.9 56.17C44.92 56.17 44.94 56.18 44.96 56.2C45.22 56.31 45.48 56.46 45.71 56.61C45.98 56.79 46.23 56.97 46.43 57.15C46.81 57.47 47.06 57.69 47.06 57.69C47.06 57.69 46.91 57.39 46.67 56.95C46.62 56.84 46.54 56.73 46.47 56.6C46.36 56.43 46.25 56.26 46.12 56.08C46.38 56.21 46.64 56.34 46.86 56.46C47.3 56.7 47.62 56.91 47.68 56.94C47.66 56.89 47.56 56.72 47.42 56.46V56.45C47.42 56.45 47.41 56.43 47.4 56.42C47.27 56.14 47.05 55.82 46.82 55.49C47.19 55.41 47.61 55.47 47.96 55.63C48.54 55.89 48.98 56.36 49.41 56.81C49.38 56.44 49.38 56.06 49.43 55.69C49.47 55.76 49.51 55.82 49.55 55.87C49.72 56.11 49.89 56.21 49.93 56.25C49.93 56.22 49.84 56.03 49.84 55.76C49.84 55.47 49.89 55.11 50.07 54.76C50.11 54.67 50.15 54.59 50.19 54.51C50.22 54.7 50.26 54.9 50.3 55.09C50.52 55.92 50.89 56.68 51.25 57.17C51.41 57.43 51.62 57.59 51.73 57.73C51.85 57.86 51.92 57.93 51.92 57.93C51.92 57.93 51.87 57.84 51.8 57.68C51.74 57.52 51.6 57.32 51.54 57.04C51.37 56.48 51.27 55.73 51.32 54.98C51.34 54.8 51.37 54.62 51.39 54.43C51.72 54.99 51.99 55.43 51.99 55.43C51.99 55.43 52.02 55.11 52.06 54.68C52.19 54.99 52.36 55.25 52.55 55.44C52.89 55.8 53.22 55.87 53.3 55.88C53.27 55.85 53.22 55.81 53.13 55.75C53.02 55.64 52.89 55.49 52.79 55.27C52.69 55.05 52.62 54.77 52.62 54.48C52.61 54.2 52.7 53.85 52.73 53.53C52.73 53.46 52.76 53.4 52.76 53.33C52.83 53.42 52.91 53.5 52.98 53.59C53.28 53.97 53.61 54.38 53.88 54.64C54.12 54.87 54.3 55.01 54.34 55.04C54.33 54.99 54.23 54.78 54.15 54.48C54.06 54.14 53.98 53.71 53.91 53.23C54.19 53.4 54.47 53.58 54.75 53.75C54.83 53.6 54.9 53.44 54.98 53.29C55.12 53.81 55.31 54.29 55.5 54.63C55.59 54.82 55.71 54.96 55.77 55.07C55.84 55.17 55.88 55.23 55.88 55.23C55.88 55.23 55.88 55.16 55.85 55.04C55.84 54.92 55.8 54.76 55.8 54.55C55.78 54.14 55.83 53.6 55.93 53.09C55.97 52.94 56.01 52.79 56.05 52.64C56.2 53.05 56.38 53.41 56.56 53.69C56.69 53.93 56.85 54.09 56.94 54.22C57.01 54.31 57.07 54.37 57.09 54.39C57.09 54.36 57.06 54.28 57.02 54.17C56.98 54.02 56.89 53.83 56.85 53.57C56.74 53.07 56.71 52.39 56.79 51.73C56.79 51.67 56.81 51.62 56.82 51.56C57.1 52.15 57.32 52.62 57.32 52.62C57.32 52.62 57.41 51.91 57.5 51.12C57.66 51.4 57.81 51.68 57.94 51.97C58.04 51.16 58.71 50.48 59.5 50.28C59.5 50.29 59.51 50.3 59.52 50.31C59.86 50.88 60.2 51.45 60.39 51.76C60.48 51.93 60.54 52.02 60.54 52.02C60.54 52.02 60.54 51.94 60.54 51.8C60.53 51.45 60.51 50.72 60.48 49.99C60.71 50.47 60.93 50.92 61.13 51.27C61.27 51.52 61.39 51.73 61.47 51.88C61.55 52.02 61.6 52.1 61.63 52.14C61.63 52.09 61.59 51.93 61.54 51.7C61.51 51.55 61.47 51.37 61.43 51.16C61.29 50.56 61.2 49.75 61.08 48.95C61.08 48.91 61.08 48.88 61.08 48.84C61.09 48.75 61.11 48.64 61.13 48.52C61.14 48.4 61.16 48.28 61.2 48.14C61.28 47.79 61.42 47.39 61.53 47C61.54 47.65 61.66 48.28 61.84 48.72C61.91 48.97 62.06 49.16 62.13 49.3C62.14 49.31 62.14 49.32 62.15 49.33C62.21 49.43 62.25 49.5 62.27 49.53C62.27 49.5 62.26 49.42 62.23 49.3C62.23 49.2 62.18 49.08 62.16 48.94C62.15 48.84 62.13 48.75 62.14 48.66C62.14 48.51 62.14 48.33 62.17 48.15V48.1C62.22 47.68 62.33 47.21 62.51 46.78C62.56 46.65 62.63 46.52 62.7 46.4C62.89 46.02 63.11 45.69 63.33 45.39C63.31 45.71 63.3 45.99 63.33 46.23C63.33 46.25 63.33 46.26 63.33 46.28C63.33 46.35 63.33 46.43 63.34 46.49C63.36 46.67 63.39 46.81 63.41 46.91C63.44 47.06 63.45 47.13 63.45 47.13C63.45 47.13 63.45 47.05 63.48 46.9C63.49 46.79 63.51 46.66 63.54 46.5C63.55 46.43 63.57 46.36 63.59 46.29C63.59 46.24 63.61 46.18 63.63 46.12C63.68 45.91 63.78 45.67 63.86 45.42C63.93 45.27 64.01 45.11 64.08 44.94C64.12 44.87 64.17 44.81 64.21 44.75L64.35 44.63C64.48 44.58 64.52 44.6 64.74 44.56C64.95 44.53 65.22 44.43 65.47 44.3C65.94 44.02 66.27 43.59 66.47 43.2C66.73 42.68 66.84 42.28 66.9 42.04C67.2 41.59 67.48 41.13 67.72 40.64C68.24 40.67 68.76 40.91 69.11 41.31C69.81 41.38 70.41 41.26 71.12 41.33C71.18 40.58 71.24 39.84 71.3 39.09C71.72 39.04 72.16 39.11 72.54 39.31C72.67 38.54 72.71 37.76 72.66 36.99C72.85 37.41 73.42 36.83 73.47 36.37C73.51 35.92 73.56 35.47 73.6 35.02C73.87 35.04 74.15 35.06 74.43 35.09C74.56 34.35 74.7 33.61 74.83 32.87C74.88 32.57 74.94 32.28 74.99 31.99C75 31.9 75.02 31.82 75.03 31.74C74.94 31.77 74.73 31.85 74.47 31.96L74.42 31.92Z" fill="#B36722"/>
<path d="M69.13 65.68C69.01 65.61 68.91 65.52 68.81 65.42C68.88 65.52 68.94 65.62 69 65.72C69.26 66.08 69.52 66.45 69.74 66.75V66.77C68.61 66.16 67.61 65.3 66.84 64.26C66.34 63.59 65.82 62.78 65.01 62.63C65.04 62.7 65.06 62.77 65.09 62.84C65.2 63.08 65.35 63.3 65.5 63.48C65.65 63.65 65.78 63.8 65.88 63.89C65.95 63.96 66 64.01 66.02 64.04C65.99 64.04 65.93 64.01 65.83 63.97C65.7 63.92 65.52 63.84 65.3 63.73C65.08 63.61 64.83 63.46 64.59 63.24C64.48 63.13 64.37 63.02 64.26 62.9C64.3 63.06 64.35 63.2 64.41 63.33C64.48 63.55 64.61 63.7 64.69 63.81C64.77 63.93 64.82 63.99 64.82 63.99C64.82 63.99 64.75 63.95 64.63 63.88C64.51 63.8 64.32 63.7 64.15 63.51C63.77 63.17 63.42 62.56 63.05 62.06C62.92 61.87 62.79 61.71 62.65 61.55C62.73 61.89 62.82 62.19 62.9 62.45C63.07 62.9 63.2 63.2 63.2 63.2C63.2 63.2 63.14 63.15 63.04 63.04C62.94 62.94 62.78 62.8 62.62 62.6C62.49 62.45 62.34 62.26 62.19 62.06C62.1 61.99 61.98 61.89 61.85 61.75C61.7 61.6 61.57 61.39 61.43 61.14C61.38 61.04 61.34 60.92 61.3 60.81C61 60.39 60.71 59.99 60.45 59.73C60.14 59.39 59.9 59.23 59.88 59.19L59.93 59.15C59.76 58.87 59.71 58.51 59.93 58.28C60.17 58.02 60.66 58 60.76 57.65C60.83 57.44 60.71 57.22 60.64 57.01C60.4 56.2 61.31 55.3 62.12 55.56C61.82 54.85 62.33 54.09 62.91 53.54C62.96 53.49 63.01 53.44 63.06 53.4C63.15 53.31 63.25 53.23 63.34 53.14C63.34 53.6 63.34 54.07 63.29 54.56C63.29 54.7 63.28 54.84 63.26 54.98C63.23 55.08 63.21 55.18 63.19 55.28C63.18 55.35 63.18 55.41 63.16 55.47C63.19 55.61 63.21 55.75 63.23 55.89C63.34 56.35 63.51 56.8 63.73 57.16L63.8 57.11C63.8 57.11 63.89 57.33 64.02 57.6C64.15 57.78 64.3 57.88 64.38 57.99C64.47 58.08 64.52 58.13 64.54 58.16C64.51 58.15 64.44 58.12 64.33 58.07C64.3 58.06 64.27 58.04 64.24 58.03C64.28 58.09 64.32 58.15 64.36 58.22C64.56 58.37 64.75 58.5 64.93 58.62C65.51 59 65.9 59.25 65.9 59.25C65.9 59.25 65.53 59.13 64.95 58.95C64.99 58.99 65.02 59.03 65.06 59.07C65.48 59.48 65.97 59.83 66.38 60.05C66.47 60.1 66.55 60.14 66.62 60.18C66.72 60.22 66.81 60.25 66.88 60.29C67.01 60.34 67.08 60.38 67.08 60.38C67.08 60.38 67 60.38 66.86 60.38H66.71C66.59 60.38 66.45 60.38 66.28 60.36C66.09 60.34 65.86 60.31 65.63 60.26C65.73 60.37 65.84 60.47 65.95 60.58C66.28 60.83 66.63 61.12 66.92 61.26C67.03 61.32 67.12 61.38 67.2 61.42C67.33 61.5 67.41 61.54 67.41 61.54C67.41 61.54 67.36 61.54 67.26 61.54C67.16 61.54 67.02 61.55 66.85 61.56C66.71 61.58 66.55 61.57 66.39 61.56C66.42 61.57 66.44 61.59 66.46 61.61C66.61 61.68 66.78 61.77 66.95 61.88C67.12 61.98 67.29 62.11 67.45 62.25C67.52 62.29 67.59 62.33 67.65 62.36C67.69 62.38 67.72 62.4 67.76 62.41L67.82 62.59C68.11 62.89 68.37 63.24 68.57 63.62C68.76 64 68.87 64.37 68.97 64.7C69.08 64.98 69.16 65.29 69.33 65.47C69.48 65.66 69.67 65.77 69.82 65.81C69.94 65.84 70.02 65.84 70.05 65.84C70.02 65.85 69.94 65.89 69.81 65.9C69.68 65.91 69.48 65.88 69.27 65.79C69.22 65.77 69.17 65.74 69.12 65.72L69.13 65.68Z" fill="#B36722"/>
<path opacity="0.5" d="M11.94 37.05C11.4 36.59 10.63 36.41 9.93999 36.58C10.08 36.83 10.11 37.12 10.16 37.4C10.21 37.68 10.3 37.97 10.52 38.15C10.77 38.35 11.13 38.35 11.45 38.34C12.21 38.31 13 38.3 13.71 38.6C13.25 38.25 12.79 37.89 12.38 37.48C12.24 37.34 12.1 37.19 11.95 37.06L11.94 37.05Z" fill="#3C3C3B"/>
<path d="M23.43 59.88C23.42 59.98 23.39 60.08 23.36 60.17C23.32 59.79 23.18 59.37 22.96 58.99C22.77 58.88 22.59 58.78 22.41 58.66C22.41 58.71 22.41 58.76 22.4 58.8C22.39 59 22.31 59.17 22.27 59.28C22.22 59.39 22.2 59.45 22.2 59.45C22.2 59.45 22.2 59.38 22.18 59.27C22.17 59.16 22.16 59.01 22.08 58.83C22 58.61 21.86 58.37 21.68 58.16C21.4 57.95 21.12 57.72 20.85 57.49C20.94 57.7 21.02 57.91 21.08 58.1C21.2 58.5 21.22 58.85 21.22 59.09C21.2 59.32 21.19 59.45 21.19 59.45C21.19 59.45 21.17 59.32 21.14 59.09C21.09 58.87 20.99 58.55 20.8 58.22C20.54 57.76 20.11 57.28 19.65 56.73C19.6 56.7 19.56 56.68 19.56 56.68L19.58 56.65C19.45 56.48 19.32 56.31 19.18 56.13C19.19 56.21 19.21 56.29 19.23 56.36C19.32 56.8 19.43 57.15 19.5 57.4C19.57 57.66 19.61 57.8 19.61 57.8C19.61 57.8 19.54 57.67 19.42 57.43C19.31 57.2 19.11 56.87 18.93 56.45C18.83 56.23 18.73 55.99 18.63 55.74C18.34 55.02 18.04 54.15 17.81 53.25C17.74 52.98 17.68 52.7 17.62 52.42V52.94C17.6 53.38 17.67 53.8 17.69 54.16C17.76 54.75 17.82 55.18 17.82 55.31C17.76 55.18 17.6 54.78 17.38 54.23C17.27 53.89 17.08 53.49 16.98 53.03C16.92 52.81 16.85 52.57 16.79 52.32C16.75 52.08 16.72 51.82 16.69 51.55C16.67 51.41 16.67 51.27 16.66 51.13C16.61 51.43 16.57 51.73 16.55 51.99C16.51 52.37 16.5 52.69 16.49 52.92C16.48 53.14 16.47 53.27 16.47 53.27C16.47 53.27 16.44 53.14 16.4 52.93C16.36 52.71 16.28 52.39 16.23 52.01C16.11 51.35 16.03 50.46 16.09 49.52C16.09 49.38 16.11 49.24 16.12 49.09C16.19 48.62 16.27 48.17 16.35 47.75C16 46.35 15.62 45.24 14.8 44.53C14.16 43.67 12.82 45.01 11.15 45.53C10.67 45.68 10.16 45.75 9.62999 45.69C9.45999 45.72 9.28999 45.73 9.11999 45.72C8.28999 45.7 7.50999 45.3 6.99999 44.64C6.95999 44.59 6.91999 44.53 6.87999 44.47C6.98999 44.48 7.07999 44.5 7.18999 44.5H7.23999C7.97999 44.51 8.73999 44.22 9.24999 43.67C9.24999 43.42 9.26999 43.17 9.27999 42.92C9.53999 42.77 9.79999 42.62 10.05 42.48C10.1 42.22 10.05 41.94 9.94999 41.69C9.97999 41.7 9.99999 41.72 10.03 41.72C11.48 42.35 13.31 42.02 14.44 40.9C14.47 41.12 14.51 41.34 14.58 41.55C15.09 43.35 16.68 44.81 16.98 46.68C17.07 47.25 17.04 47.84 17.03 48.41C17 49.24 17 50.04 17.37 50.75C17.46 50.47 17.71 50.25 17.99 50.19C18.27 51.11 18.61 52.02 19 52.89C19.07 53.04 19.15 53.21 19.31 53.26C19.43 53.3 19.55 53.26 19.68 53.27C19.94 53.3 20.12 53.56 20.26 53.79C20.86 54.81 21.45 55.82 22.05 56.84C22.34 57.35 22.64 57.85 22.93 58.35C23.2 58.82 23.49 59.34 23.42 59.88H23.43Z" fill="#D49053"/>
<path d="M11.97 37.74C11.24 38.5 10.26 38.05 10.44 36.76L11.49 37.12L11.97 37.74Z" fill="#1D1D1B"/>
<path d="M10.41 37.0101C10.41 37.0101 10.41 37.0501 10.41 37.1201C10.41 37.1501 10.41 37.2001 10.41 37.2401C10.41 37.2801 10.43 37.3301 10.43 37.3901C10.45 37.4401 10.46 37.5001 10.49 37.5601C10.52 37.6201 10.55 37.6701 10.59 37.7301C10.63 37.7901 10.68 37.8301 10.73 37.8801L10.82 37.9401L10.92 37.9801C10.99 38.0001 11.05 38.0301 11.12 38.0301C11.19 38.0401 11.26 38.0301 11.33 38.0301C11.4 38.0201 11.46 38.0101 11.52 37.9901C11.58 37.9801 11.64 37.9501 11.69 37.9301C11.74 37.9101 11.78 37.8801 11.82 37.8501C11.86 37.8301 11.89 37.8001 11.92 37.7801C11.97 37.7401 12 37.7101 12 37.7101C12 37.7101 11.98 37.7401 11.93 37.7901C11.91 37.8201 11.88 37.8501 11.85 37.8801C11.81 37.9101 11.78 37.9501 11.72 37.9801C11.67 38.0101 11.61 38.0501 11.55 38.0701C11.49 38.1001 11.42 38.1101 11.34 38.1301C11.26 38.1301 11.19 38.1501 11.11 38.1301C11.03 38.1301 10.95 38.1001 10.87 38.0701L10.76 38.0201L10.66 37.9501C10.6 37.9001 10.54 37.8401 10.5 37.7701C10.45 37.7101 10.43 37.6401 10.41 37.5701C10.39 37.5001 10.38 37.4401 10.37 37.3801C10.37 37.3201 10.37 37.2601 10.37 37.2201C10.37 37.1701 10.38 37.1301 10.39 37.1001C10.4 37.0301 10.41 37.0001 10.41 37.0001V37.0101Z" fill="#575756"/>
<path d="M10.26 36.73C10.26 36.73 10.3 36.73 10.36 36.73C10.42 36.73 10.51 36.73 10.62 36.74C10.67 36.74 10.73 36.76 10.8 36.77C10.86 36.78 10.92 36.81 10.99 36.83C11.05 36.85 11.12 36.87 11.19 36.91C11.25 36.94 11.32 36.98 11.38 37.01C11.44 37.05 11.5 37.09 11.56 37.14C11.62 37.18 11.67 37.23 11.72 37.28C11.82 37.37 11.9 37.47 11.97 37.56C12.04 37.64 12.07 37.73 12.1 37.79C12.13 37.85 12.14 37.88 12.14 37.88C12.14 37.88 12.11 37.86 12.06 37.82C12.01 37.78 11.95 37.72 11.86 37.66C11.82 37.63 11.77 37.6 11.73 37.56C11.69 37.52 11.63 37.49 11.58 37.45C11.48 37.37 11.36 37.31 11.25 37.23C11.13 37.16 11.02 37.09 10.9 37.04C10.84 37.01 10.79 36.98 10.74 36.96C10.69 36.94 10.64 36.91 10.59 36.89C10.5 36.84 10.41 36.81 10.35 36.79C10.29 36.76 10.26 36.75 10.26 36.75V36.73Z" fill="#575756"/>
<path d="M10.79 37.35C10.83 37.49 10.82 37.62 10.76 37.64C10.7 37.65 10.63 37.55 10.59 37.41C10.55 37.27 10.56 37.14 10.62 37.12C10.68 37.1 10.75 37.21 10.79 37.35Z" fill="#F6F6F6"/>
<path opacity="0.8" d="M13.5 43.69C12.68 44.06 12.05 44.74 11.38 45.34C11.31 45.4 11.24 45.47 11.17 45.53C10.69 45.68 10.18 45.75 9.64999 45.69C8.46999 45.88 7.29999 45.27 6.74999 44.2L5.09999 41.03C4.89999 40.63 5.02999 40.16 5.39999 39.92L8.47999 37.92C8.01999 38.43 7.46999 38.85 6.86999 39.16C6.71999 39.24 6.54999 39.31 6.45999 39.46C6.10999 39.98 6.94999 40.74 6.58999 41.25C6.43999 41.46 6.13999 41.55 6.06999 41.79C6.02999 41.94 6.10999 42.09 6.17999 42.23C6.34999 42.54 6.49999 42.86 6.66999 43.17C7.00999 43.84 7.37999 44.55 7.99999 44.99C8.78999 45.56 9.89999 45.59 10.81 45.22C11.72 44.85 12.45 44.13 13.01 43.32C13.15 43.11 13.29 42.88 13.52 42.77C13.74 42.66 14.08 42.72 14.17 42.96C14.29 43.3 13.85 43.55 13.52 43.7L13.5 43.69Z" fill="#3C3C3B"/>
<path opacity="0.1" d="M64.06 66.33C62.75 66.17 61.58 65.97 60.51 65.72C60.69 65.94 60.79 66.16 60.89 66.3C60.97 66.43 61.02 66.5 61.04 66.54C61.01 66.51 60.94 66.45 60.83 66.35C60.68 66.23 60.51 66.02 60.23 65.85C60.07 65.74 59.89 65.63 59.69 65.51C59.47 65.45 59.25 65.38 59.03 65.32C59.2 65.55 59.36 65.76 59.51 65.93C59.82 66.29 60.02 66.53 60.02 66.53C60.02 66.53 59.74 66.39 59.32 66.18C58.88 65.98 58.35 65.62 57.78 65.27C57.58 65.13 57.38 64.99 57.19 64.84C57.31 65.03 57.41 65.2 57.47 65.33C57.59 65.54 57.66 65.66 57.66 65.66C57.66 65.66 57.57 65.56 57.41 65.38C57.25 65.19 57.03 64.94 56.72 64.69C56.5 64.49 56.24 64.28 55.95 64.07C55.39 63.77 54.87 63.45 54.4 63.1C54.28 63.01 54.18 62.91 54.06 62.82C53.66 62.57 53.26 62.32 52.88 62.06C52.43 61.73 52.02 61.47 51.62 61.09C51.44 60.92 51.28 60.72 51.14 60.5C51.09 60.7 51.06 60.82 51.06 60.82C51.06 60.82 50.99 60.65 50.87 60.38C50.78 60.2 50.66 59.99 50.53 59.79C50.64 60.24 50.68 60.69 50.6 61.01C50.6 61.24 50.51 61.43 50.48 61.55C50.45 61.68 50.43 61.75 50.43 61.75C50.43 61.75 50.42 61.68 50.4 61.55C50.37 61.42 50.37 61.25 50.29 61.04C50.26 60.94 50.22 60.83 50.18 60.72C50.12 60.61 50.06 60.51 49.99 60.4C49.94 60.28 49.85 60.18 49.77 60.08C49.68 59.98 49.62 59.89 49.5 59.77L49.38 59.64C49.38 59.9 49.38 60.06 49.38 60.06C49.38 60.06 49.26 59.93 49.08 59.74C48.99 59.65 48.9 59.53 48.82 59.4C48.6 59.94 48.52 60.56 48.52 60.56C48.52 60.56 48.43 60.43 48.28 60.24C48.18 60.11 48.09 59.94 48 59.76C47.8 60.23 47.62 60.65 47.58 60.71C47.63 60.72 47.66 60.74 47.68 60.74C47.66 60.74 47.62 60.74 47.57 60.73C47.53 60.66 47.39 60.23 47.23 59.7C47.06 60.18 46.89 60.64 46.87 60.98C46.83 61.31 46.96 61.54 46.98 61.58C46.96 61.57 46.91 61.53 46.84 61.47C46.75 61.38 46.64 61.24 46.56 61.03C46.41 60.67 46.36 60.23 46.3 59.77C46.18 60.09 46.05 60.43 46.01 60.7C45.94 60.98 45.9 61.17 45.9 61.17C45.9 61.17 45.82 60.99 45.69 60.73C45.63 60.62 45.58 60.48 45.52 60.33C45.5 60.38 45.47 60.44 45.45 60.5C45.38 60.73 45.34 60.94 45.32 61.13C45.29 61.5 45.43 61.75 45.42 61.76C45.42 61.75 45.18 61.59 45.01 61.18C44.94 60.99 44.88 60.78 44.84 60.55C44.68 60.89 44.56 61.15 44.56 61.15C44.56 61.15 44.45 60.89 44.31 60.55C44.26 60.68 44.22 60.79 44.22 60.9C44.17 61.25 44.13 61.48 44.13 61.48C44.13 61.48 44.04 61.26 43.9 60.92C43.9 60.91 43.9 60.89 43.89 60.87C43.86 61.18 43.85 61.48 43.89 61.73C43.89 61.91 43.95 62.04 43.96 62.15C43.99 62.26 44 62.32 44 62.32C44 62.32 43.96 62.27 43.89 62.19C43.82 62.11 43.7 62 43.6 61.85C43.43 61.63 43.25 61.31 43.1 60.96C43.08 61.01 43.06 61.07 43.05 61.12C42.98 61.42 43.01 61.64 43 61.64C43 61.64 42.85 61.47 42.74 61.15C42.61 60.83 42.54 60.38 42.5 59.91V59.86C42.47 59.94 42.44 60.02 42.42 60.1C42.2 60.78 42.04 61.46 42.14 61.96C42.18 62.21 42.27 62.41 42.36 62.54C42.43 62.63 42.47 62.69 42.49 62.72C42.41 62.68 42.09 62.52 41.84 62.07C41.7 61.83 41.61 61.53 41.54 61.22C41.32 61.82 41.14 62.3 41.14 62.3C41.14 62.3 41 61.7 40.84 61C40.72 61.32 40.64 61.63 40.62 61.91C40.58 62.14 40.62 62.33 40.62 62.47C40.62 62.61 40.63 62.69 40.63 62.69C40.63 62.69 40.59 62.62 40.53 62.5C40.48 62.37 40.35 62.2 40.3 61.96C40.2 61.64 40.14 61.24 40.13 60.8C40.08 61.08 40.05 61.34 40.06 61.56C40.06 61.95 40.05 62.21 40.05 62.21C40.05 62.21 39.93 61.97 39.76 61.61C39.57 61.28 39.44 60.81 39.28 60.31C39.28 60.33 39.27 60.35 39.25 60.37C39.05 60.97 38.79 61.57 38.73 62.05C38.63 62.54 38.56 62.86 38.56 62.86C38.56 62.86 38.5 62.54 38.41 62.05C38.34 61.76 38.31 61.4 38.29 61.01C38.18 61.35 38.07 61.68 38.01 61.95C37.91 62.36 37.84 62.64 37.84 62.64C37.84 62.64 37.78 62.36 37.69 61.95C37.62 61.69 37.58 61.37 37.54 61.02C37.45 61.17 37.37 61.31 37.28 61.46C37.22 61.61 37.16 61.76 37.1 61.9C37.07 61.97 37.04 62.05 37.01 62.12C36.99 62.19 36.98 62.26 36.96 62.32C36.93 62.47 36.93 62.6 36.93 62.72C36.92 62.85 36.96 62.96 36.97 63.06C36.98 63.17 37.02 63.25 37.06 63.32C37.13 63.47 37.17 63.54 37.17 63.54C37.17 63.52 36.85 63.32 36.63 62.79C36.58 62.65 36.52 62.5 36.5 62.33C36.49 62.24 36.47 62.16 36.46 62.07C36.46 61.98 36.46 61.89 36.46 61.81C36.46 61.62 36.47 61.43 36.49 61.23C36.52 61.04 36.56 60.86 36.59 60.67C36.62 60.57 36.64 60.46 36.66 60.36L36.12 60.41C35.88 60.85 35.73 61.32 35.73 61.71C35.73 61.91 35.76 62.1 35.82 62.22C35.85 62.32 35.87 62.39 35.88 62.41C35.86 62.39 35.81 62.34 35.74 62.26C35.64 62.17 35.54 62 35.43 61.78C35.28 61.48 35.21 61.05 35.21 60.59C35.09 60.91 34.98 61.26 34.89 61.63C34.8 62.28 34.65 62.96 34.68 63.47V64.33C34.68 64.33 34.55 64.01 34.38 63.52C34.16 63.03 34.05 62.33 33.89 61.6C33.85 61.28 33.84 60.96 33.82 60.64H33.74C33.58 60.96 33.42 61.29 33.28 61.65C33.09 62.28 32.85 62.94 32.8 63.45C32.71 63.97 32.66 64.31 32.66 64.31C32.66 64.31 32.59 63.97 32.49 63.46C32.36 63 32.34 62.4 32.3 61.77C32.27 61.85 32.23 61.94 32.2 62.02C31.98 62.69 31.93 63.46 32.02 64.02C32.03 64.31 32.13 64.53 32.17 64.7C32.2 64.83 32.22 64.91 32.23 64.94C32.2 64.91 32.16 64.83 32.09 64.74C32.01 64.59 31.83 64.4 31.72 64.11C31.62 63.92 31.53 63.68 31.46 63.42C31.41 63.95 31.42 64.45 31.47 64.86C31.49 65.16 31.58 65.4 31.61 65.58C31.64 65.71 31.66 65.8 31.67 65.84C31.64 65.81 31.6 65.73 31.53 65.62C31.45 65.46 31.29 65.25 31.17 64.95C30.91 64.4 30.69 63.61 30.56 62.79C30.48 63.27 30.41 63.72 30.41 64.1C30.38 64.44 30.42 64.71 30.46 64.91C30.49 65.11 30.5 65.22 30.5 65.22C30.5 65.22 30.45 65.11 30.37 64.93C30.28 64.74 30.17 64.48 30.1 64.13C30.02 63.83 29.97 63.47 29.91 63.09C29.9 63.16 29.88 63.22 29.86 63.28C29.75 63.54 29.65 63.83 29.52 64.06C29.27 64.55 29.01 64.99 28.83 65.41C28.65 65.83 28.55 66.26 28.53 66.62C28.5 66.99 28.61 67.29 28.68 67.5C28.79 67.69 28.86 67.8 28.86 67.8C28.86 67.8 28.77 67.7 28.61 67.54C28.48 67.35 28.29 67.05 28.22 66.64C28.14 66.26 28.14 65.79 28.22 65.29L27.95 65.67C27.95 65.76 27.95 65.86 27.95 65.95C27.99 66.59 28.11 67.25 28.35 67.68C28.44 67.92 28.58 68.06 28.67 68.19C28.76 68.32 28.81 68.38 28.81 68.38C28.81 68.38 28.74 68.33 28.61 68.25C28.49 68.16 28.27 68.06 28.1 67.86C27.89 67.69 27.7 67.46 27.52 67.19C27.55 67.49 27.64 67.78 27.74 68.03C27.87 68.37 28 68.64 28.09 68.84C28.16 68.98 28.21 69.08 28.23 69.12C28.2 69.09 28.12 69.01 28.02 68.89C27.88 68.72 27.68 68.49 27.46 68.18C27.29 67.95 27.12 67.67 26.98 67.33C27.01 67.93 27.13 68.51 27.26 68.95C27.32 69.19 27.42 69.37 27.46 69.51C27.51 69.65 27.55 69.72 27.55 69.72C27.55 69.72 27.49 69.66 27.39 69.55C27.3 69.44 27.13 69.3 26.98 69.09C26.79 68.86 26.6 68.57 26.4 68.24C26.4 68.27 26.4 68.31 26.4 68.35C26.43 68.71 26.44 69.14 26.55 69.41C26.63 69.67 26.69 69.85 26.7 69.9C26.68 69.89 26.63 69.85 26.57 69.8C26.65 69.98 26.73 70.14 26.8 70.26C26.93 70.44 27.01 70.54 27.01 70.54C27.01 70.54 26.91 70.46 26.73 70.32C26.57 70.15 26.33 69.92 26.15 69.55C26.12 69.51 26.11 69.46 26.09 69.42C25.98 69.31 25.87 69.2 25.77 69.07C25.7 69.27 25.63 69.47 25.56 69.68C25.56 69.68 25.56 69.7 25.56 69.71C25.66 70.22 25.88 70.7 26.13 71.03C26.32 71.25 26.48 71.46 26.63 71.57C26.76 71.69 26.84 71.76 26.84 71.76C26.84 71.76 26.75 71.72 26.58 71.65C26.4 71.58 26.18 71.44 25.91 71.26C25.72 71.12 25.51 70.92 25.32 70.7C25.27 71.01 25.27 71.3 25.31 71.55C25.36 71.79 25.42 72.01 25.5 72.15C25.58 72.29 25.62 72.37 25.62 72.37C25.62 72.35 25.39 72.2 25.14 71.85C25.17 71.96 25.18 72.02 25.18 72.02C25.18 72.02 25.14 71.96 25.07 71.86C25 71.76 24.87 71.62 24.77 71.44C24.67 71.27 24.57 71.08 24.47 70.86C24.38 71.09 24.3 71.34 24.24 71.58C24.1 72.16 24.1 72.78 24.2 73.24C24.23 73.48 24.33 73.64 24.37 73.78C24.42 73.91 24.45 73.99 24.45 73.99C24.45 73.99 24.39 73.93 24.3 73.82C24.21 73.71 24.04 73.58 23.91 73.35C23.84 73.24 23.76 73.11 23.69 72.97C23.88 72.49 24.01 71.98 24.09 71.49C24.25 70.54 24.31 69.55 24.57 68.63C24.7 68.37 24.84 68.13 24.99 67.88C25.19 67.58 25.41 67.28 25.64 66.99C26.04 66.48 26.45 65.97 26.82 65.44C28.64 62.79 29.08 59.43 29.11 56.21C30.35 56.51 31.58 56.83 32.75 57.34C33.9 57.84 34.99 58.54 36.22 58.82C38.75 59.4 41.38 58.09 43.95 58.48C44.7 58.59 45.42 58.84 46.17 58.92C47.18 59.01 48.17 58.77 49.17 58.64C49.96 58.52 50.76 58.47 51.56 58.49C51.71 58.49 51.86 58.49 52.02 58.49C52.21 58.49 52.4 58.51 52.58 58.59C52.58 58.59 52.66 58.62 52.69 58.64C52.89 58.77 53 58.98 53.13 59.17C53.61 59.86 54.37 60.3 55.11 60.7C57.38 61.96 59.66 63.22 61.93 64.48C62.9 65.02 63.91 65.58 64.61 66.44C65.26 67.23 65.6 68.17 65.9 69.15L64.02 66.33H64.06Z" fill="#1D1D1B"/>
<path opacity="0.2" d="M30.37 41.35C30.52 41.41 30.61 41.44 30.61 41.44C30.61 41.44 30.58 41.44 30.51 41.44C30.46 41.41 30.42 41.38 30.37 41.35Z" fill="#1D1D1B"/>
<path opacity="0.1" d="M43.22 42.35C42.51 43.04 41.71 43.61 40.76 43.75C40.45 43.8 40.13 43.8 39.83 43.88C39.25 44.05 38.79 44.55 38.67 45.13C38.54 45.71 38.77 46.36 39.23 46.74C38.79 46.63 38.45 46.31 38.05 46.1C37.66 45.89 37.1 45.82 36.81 46.15C36.62 46.37 36.6 46.69 36.61 46.98C36.61 48.42 36.79 49.85 37.15 51.24C36.22 50.2 35.54 48.95 35.14 47.61C34.98 47.09 34.87 46.57 34.69 46.06C34 44.12 32.35 42.69 30.64 41.54C35 42.1 39.04 42.33 43.22 42.36V42.35Z" fill="#1D1D1B"/>
<path opacity="0.1" d="M67.53 47.76C67.68 47.83 67.79 47.87 67.83 47.89C67.78 47.89 67.67 47.87 67.51 47.85C67.29 47.81 66.97 47.8 66.59 47.71C65.9 47.59 65 47.33 64.1 47C64.36 47.24 64.63 47.45 64.89 47.6C65.04 47.71 65.19 47.77 65.32 47.82C65.45 47.89 65.57 47.93 65.68 47.95C65.88 48 66 48.03 66 48.03C66 48.03 65.88 48.03 65.66 48.03C65.55 48.03 65.42 48.03 65.27 48C65.12 47.98 64.94 47.95 64.76 47.89C64.16 47.73 63.47 47.35 62.8 46.89C63.08 47.24 63.37 47.58 63.63 47.91C63.93 48.25 64.24 48.53 64.5 48.79C64.95 49.23 65.27 49.54 65.35 49.63C65.26 49.58 64.87 49.36 64.31 49.04C63.99 48.85 63.6 48.65 63.21 48.39C62.91 48.17 62.6 47.94 62.28 47.71C62.93 49.17 63.34 50.96 63.34 53.15C63.34 53.61 63.34 54.08 63.29 54.57C63.15 54.24 63.03 53.9 62.92 53.55C62.78 53.11 62.66 52.68 62.53 52.25C62.34 51.6 62.14 50.94 61.92 50.29C61.68 49.56 61.42 48.84 61.14 48.12C60.9 47.49 60.64 46.86 60.38 46.24C61.11 46.09 61.89 46.24 62.65 46.37H62.66C62.87 46.4 63.08 46.44 63.28 46.47C63.35 46.47 63.41 46.48 63.48 46.49C63.97 46.54 64.44 46.54 64.88 46.4C65.51 46.82 66.14 47.17 66.67 47.41C67.01 47.58 67.31 47.67 67.52 47.76H67.53Z" fill="#1D1D1B"/>
<path opacity="0.1" d="M76.18 39.28C76.16 39.43 76.14 39.59 76.12 39.74C76.09 39.93 76.07 40.12 76.04 40.31C76.04 40.34 76.03 40.38 76.02 40.41C75.97 40.77 75.91 41.12 75.84 41.47C75.83 41.58 75.81 41.68 75.78 41.79C75.75 41.79 75.73 41.78 75.7 41.77C75.4 41.66 74.95 41.6 74.54 41.52C74.14 41.47 73.75 41.46 73.44 41.47C74.33 42.03 75.12 42.53 75.12 42.53C75.12 42.53 74.16 42.4 73.1 42.26C73.41 42.39 73.71 42.47 73.98 42.5C74.23 42.55 74.44 42.55 74.58 42.53C74.73 42.53 74.82 42.52 74.82 42.52C74.82 42.52 74.74 42.55 74.6 42.61C74.47 42.68 74.26 42.76 74 42.82C73.58 42.92 73 42.95 72.41 42.88C73.01 43.29 73.5 43.63 73.5 43.63C73.5 43.63 72.76 43.57 71.92 43.51C72.22 43.69 72.52 43.83 72.79 43.91C72.92 43.95 73.03 43.97 73.14 43.98C73.25 44 73.35 44.01 73.42 43.99C73.59 43.99 73.68 43.98 73.68 43.98C73.68 43.98 73.59 44.01 73.44 44.08C73.36 44.12 73.27 44.15 73.15 44.17C73.04 44.2 72.91 44.22 72.75 44.23C72.39 44.26 71.96 44.2 71.51 44.1C71.81 44.37 72.12 44.62 72.36 44.84C72.66 45.1 72.88 45.28 72.92 45.33C72.86 45.31 72.59 45.23 72.21 45.11C71.78 44.97 71.16 44.8 70.56 44.58C70.37 44.49 70.17 44.41 69.98 44.33C70.41 44.71 70.87 45.02 71.2 45.3C71.53 45.55 71.76 45.74 71.81 45.78C71.74 45.77 71.46 45.69 71.06 45.59C70.61 45.46 69.96 45.34 69.35 45.1C69.04 44.99 68.73 44.89 68.44 44.78C68.35 44.75 68.27 44.72 68.19 44.69C68.19 44.69 68.18 44.69 68.17 44.69C68.42 44.86 68.68 45.02 68.94 45.17C69.74 45.6 70.64 45.84 71.33 45.87C71.67 45.89 71.97 45.87 72.17 45.84C72.33 45.81 72.43 45.8 72.47 45.8C72.43 45.82 72.34 45.86 72.19 45.93C72 46.02 71.71 46.12 71.35 46.19C70.63 46.36 69.6 46.36 68.59 46.13C67.88 45.95 67.17 45.7 66.58 45.45C66.51 45.48 66.43 45.51 66.36 45.54C66.6 45.67 66.86 45.77 67.13 45.87C68.2 46.27 69.4 46.39 70.29 46.45C71.19 46.5 71.78 46.52 71.78 46.52C71.78 46.52 71.2 46.63 70.3 46.76C69.41 46.89 68.18 47.04 66.89 46.85C66.57 46.8 66.25 46.76 65.93 46.65C65.61 46.58 65.32 46.46 65.05 46.35C65.13 46.32 65.21 46.28 65.29 46.24C65.82 45.95 66.21 45.45 66.71 45.12C67.57 44.55 68.68 44.52 69.62 44.11C70.49 43.73 71.19 43.04 71.81 42.32C72.3 41.75 72.76 41.16 73.19 40.54C73.43 40.36 73.69 40.23 73.98 40.16C74.79 39.96 75.96 40.11 76.14 39.3L76.18 39.28Z" fill="#1D1D1B"/>
<path opacity="0.1" d="M23.43 59.88C23.42 59.98 23.39 60.08 23.36 60.17C23.32 59.79 23.18 59.37 22.96 58.99C22.77 58.88 22.59 58.78 22.41 58.66C22.41 58.71 22.41 58.76 22.4 58.8C22.39 59 22.31 59.17 22.27 59.28C22.22 59.39 22.2 59.45 22.2 59.45C22.2 59.45 22.2 59.38 22.18 59.27C22.17 59.16 22.16 59.01 22.08 58.83C22 58.61 21.86 58.37 21.68 58.16C21.4 57.95 21.12 57.72 20.85 57.49C20.94 57.7 21.02 57.91 21.08 58.1C21.2 58.5 21.22 58.85 21.22 59.09C21.2 59.32 21.19 59.45 21.19 59.45C21.19 59.45 21.17 59.32 21.14 59.09C21.09 58.87 20.99 58.55 20.8 58.22C20.54 57.76 20.11 57.28 19.65 56.73C19.6 56.7 19.56 56.68 19.56 56.68L19.58 56.65C19.45 56.48 19.32 56.31 19.18 56.13C19.19 56.21 19.21 56.29 19.23 56.36C19.32 56.8 19.43 57.15 19.5 57.4C19.57 57.66 19.61 57.8 19.61 57.8C19.61 57.8 19.54 57.67 19.42 57.43C19.31 57.2 19.11 56.87 18.93 56.45C18.83 56.23 18.73 55.99 18.63 55.74C19.28 56.05 19.95 56.3 20.65 56.47C21.13 56.59 21.62 56.69 22.09 56.85C22.38 57.36 22.68 57.86 22.97 58.36C23.24 58.83 23.53 59.35 23.46 59.89L23.43 59.88Z" fill="#1D1D1B"/>
<path opacity="0.1" d="M17.53 47.27C17.45 47.68 17.27 48.06 17.05 48.41C16.82 48.77 16.53 49.1 16.24 49.4C16.2 49.44 16.15 49.49 16.11 49.52C16.11 49.38 16.13 49.24 16.14 49.09C16.21 48.62 16.29 48.17 16.37 47.75C16.02 46.35 15.64 45.24 14.82 44.53C14.18 43.67 12.84 45.01 11.17 45.53C10.69 45.68 10.18 45.75 9.65 45.69C9.48 45.72 9.31 45.73 9.14 45.72C9.08 45.63 9.03 45.53 8.97 45.44C9.75 45.76 10.67 45.55 11.38 45.11C12.09 44.66 12.65 44 13.19 43.35C13.68 42.77 14.16 42.18 14.61 41.56C14.93 41.12 15.22 40.66 15.46 40.18C15.34 41.24 15.79 42.24 16.31 43.24C16.49 43.58 16.67 43.91 16.85 44.26C17.35 45.24 17.75 46.22 17.54 47.28L17.53 47.27Z" fill="#1D1D1B"/>
<path d="M25.3218 37.484L15.1674 46.1506L16.1606 47.3144L26.3151 38.6478L25.3218 37.484Z" fill="#3C3C3B"/>
<path opacity="0.1" d="M21 36.09C20.38 35.68 19.71 35.3 19.27 34.7C19.02 34.62 18.84 34.93 18.77 35.18C18.48 36.21 18.19 37.24 17.89 38.27C18.06 38.7 18.06 39.17 18.05 39.62C18.05 40.35 18.03 41.08 18.02 41.81C18.02 42.07 18.02 42.35 18.2 42.55C18.3 42.66 18.45 42.72 18.59 42.78C19.93 43.31 21.54 43.68 22.74 42.88C23.89 42.11 24.18 40.45 23.71 39.15C23.23 37.85 22.15 36.86 21 36.1V36.09Z" fill="#1D1D1B"/>
<path d="M19.4 42.53C17.6 42.32 16.83 41.17 16.62 39.21C16.6 38.98 16.56 38.74 16.5 38.51L15.77 35.77C15.53 33.8 17.69 32.54 18.94 34.22C19.65 35.55 20.62 36.49 21.78 37.13C22.41 37.48 22.84 38.08 22.99 38.75C23.53 39.86 23.34 40.85 22.29 41.71C21.49 42.37 20.43 42.66 19.4 42.54V42.53Z" fill="#944E0F"/>
<path d="M71.61 19.52C71.26 19.52 70.95 19.47 70.68 19.37C70.37 19.25 70.1 19.07 69.89 18.91C69.34 18.5 68.86 18.03 68.4 17.57C68.09 17.26 67.77 16.95 67.44 16.66C66.72 16.04 65.41 15.56 64.39 15.6L64.37 14.6C64.43 14.6 64.5 14.6 64.56 14.6L64.49 13.65L67.01 13.45C67.33 13.42 67.64 13.4 67.96 13.41C69.33 13.43 70.65 14.01 71.61 14.99C71.83 15.22 72.03 15.47 72.24 15.72C72.46 15.99 72.66 16.25 72.9 16.47L73.03 16.59C73.34 16.88 73.73 17.24 73.79 17.78C73.85 18.29 73.59 18.82 73.12 19.14C72.8 19.36 72.39 19.48 71.88 19.51C71.79 19.51 71.71 19.51 71.63 19.51L71.61 19.52ZM64.88 14.62C66.02 14.73 67.3 15.23 68.09 15.91C68.44 16.21 68.77 16.54 69.1 16.86C69.56 17.31 69.99 17.74 70.48 18.11C70.64 18.23 70.83 18.36 71.02 18.43C71.23 18.51 71.49 18.53 71.8 18.52C72.13 18.5 72.37 18.43 72.54 18.32C72.69 18.21 72.79 18.04 72.78 17.91C72.76 17.73 72.55 17.53 72.33 17.33L72.19 17.2C71.91 16.93 71.68 16.64 71.45 16.35C71.27 16.12 71.09 15.9 70.89 15.69C70.12 14.9 69.05 14.44 67.94 14.42C67.66 14.42 67.37 14.44 67.09 14.46L64.88 14.63V14.62Z" fill="#1D1D1B"/>
<path d="M64.97 11.68L63.98 12.9L63.59 14.85L63.63 16.45C63.68 16.76 64.65 17.17 64.69 15.07L65.4 14.13C65.77 13.98 66.11 13.73 66.43 13.42C66.82 13.04 67.09 12.55 67.2 12.01L67.31 10.98L64.98 11.67L64.97 11.68Z" fill="#FFD2A1"/>
</g>
</g>
<defs>
<clipPath id="clip0_1056_75">
<rect width="86" height="86" rx="43" fill="white"/>
</clipPath>
<clipPath id="clip1_1056_75">
<rect width="101.59" height="116.7" fill="white" transform="translate(5 -41)"/>
</clipPath>
</defs>
</svg>
