<svg width="32" height="33" viewBox="0 0 32 33" fill="none" xmlns="http://www.w3.org/2000/svg">
<path d="M23.8912 19.646C23.5459 19.9806 23.3872 20.4646 23.4659 20.9393L24.6512 27.4993C24.7512 28.0553 24.5165 28.618 24.0512 28.9393C23.5952 29.2726 22.9885 29.3126 22.4912 29.046L16.5859 25.966C16.3805 25.8566 16.1525 25.798 15.9192 25.7913H15.5579C15.4325 25.81 15.3099 25.85 15.1979 25.9113L9.29119 29.006C8.99919 29.1526 8.66852 29.2046 8.34452 29.1526C7.55519 29.0033 7.02852 28.2513 7.15785 27.458L8.34452 20.898C8.42319 20.4193 8.26452 19.9326 7.91919 19.5926L3.10452 14.926C2.70185 14.5353 2.56185 13.9486 2.74585 13.4193C2.92452 12.8913 3.38052 12.506 3.93119 12.4193L10.5579 11.458C11.0619 11.406 11.5045 11.0993 11.7312 10.646L14.6512 4.65932C14.7205 4.52599 14.8099 4.40332 14.9179 4.29932L15.0379 4.20599C15.1005 4.13665 15.1725 4.07932 15.2525 4.03265L15.3979 3.97932L15.6245 3.88599H16.1859C16.6872 3.93799 17.1285 4.23799 17.3592 4.68599L20.3179 10.646C20.5312 11.082 20.9459 11.3847 21.4245 11.458L28.0512 12.4193C28.6112 12.4993 29.0792 12.886 29.2645 13.4193C29.4392 13.954 29.2885 14.5406 28.8779 14.926L23.8912 19.646Z" fill="#FACD49"/>
</svg>
